<?xml version="1.0" encoding="UTF-8" standalone="no"?>
<svg
   xmlns:dc="http://purl.org/dc/elements/1.1/"
   xmlns:cc="http://creativecommons.org/ns#"
   xmlns:rdf="http://www.w3.org/1999/02/22-rdf-syntax-ns#"
   xmlns:svg="http://www.w3.org/2000/svg"
   xmlns="http://www.w3.org/2000/svg"
   xmlns:sodipodi="http://sodipodi.sourceforge.net/DTD/sodipodi-0.dtd"
   xmlns:inkscape="http://www.inkscape.org/namespaces/inkscape"
   width="210mm"
   height="297mm"
   viewBox="0 0 210 297"
   version="1.1"
   id="svg8"
   inkscape:version="1.0 (4035a4f, 2020-05-01)"
   sodipodi:docname="arboles.svg">
  <defs
     id="defs2" />
  <sodipodi:namedview
     id="base"
     pagecolor="#ffffff"
     bordercolor="#666666"
     borderopacity="1.0"
     inkscape:pageopacity="0.0"
     inkscape:pageshadow="2"
     inkscape:zoom="0.7"
     inkscape:cx="410.62981"
     inkscape:cy="469.94933"
     inkscape:document-units="mm"
     inkscape:current-layer="layer1"
     inkscape:document-rotation="0"
     showgrid="false"
     inkscape:window-width="1251"
     inkscape:window-height="700"
     inkscape:window-x="24"
     inkscape:window-y="25"
     inkscape:window-maximized="0" />
  <metadata
     id="metadata5">
    <rdf:RDF>
      <cc:Work
         rdf:about="">
        <dc:format>image/svg+xml</dc:format>
        <dc:type
           rdf:resource="http://purl.org/dc/dcmitype/StillImage" />
        <dc:title />
      </cc:Work>
    </rdf:RDF>
  </metadata>
  <g
     inkscape:label="Capa 1"
     inkscape:groupmode="layer"
     id="layer1">
    <g
       id="g2592"
       transform="translate(24.383118,-9.6716086)">
      <!--<path
         id="path2600"
         d="m -6.8836897,195.69322 c -0.873125,0 -2.2225,-0.2892 -2.9986111,-0.64267 -0.7761112,-0.35347 -1.9687652,-1.26279 -2.6503412,-2.02072 -0.681577,-0.75793 -1.460961,-2.05248 -1.731965,-2.87677 -0.408765,-1.24332 -0.416602,-1.83891 -0.04598,-3.495 0.346951,-1.55034 0.804412,-2.37866 2.047814,-3.70796 0.891666,-0.95326 2.086351,-1.83721 2.6963256,-1.99501 l 1.0952617,-0.28335 0.098107,-4.82226 0.098108,-4.82227 -1.5870692,-0.74601 c -0.8728881,-0.41031 -2.1433201,-1.36172 -2.8231821,-2.11424 -0.679862,-0.75253 -1.337301,-1.7714 -1.460976,-2.26416 -0.123676,-0.49276 -0.162709,-1.99594 -0.08674,-3.3404 0.117929,-2.08706 0.296052,-2.6408 1.218262,-3.78727 0.594076,-0.73854 1.896751,-1.73967 2.894833,-2.22474 l 1.8146953,-0.88195 0.00518,-4.64694 0.00518,-4.64695 -1.2894147,-0.42555 c -0.7091776,-0.23404 -1.9488996,-1.08502 -2.7549366,-1.89106 -0.948948,-0.94895 -1.626487,-2.04043 -1.922178,-3.09654 -0.284345,-1.01558 -0.360832,-2.20923 -0.202707,-3.16337 0.139673,-0.8428 0.413034,-1.84986 0.60747,-2.23792 0.194436,-0.38805 0.920175,-1.29839 1.612753,-2.02297 0.692578,-0.72457 1.785059,-1.49095 2.4277347,-1.70305 l 1.1685008,-0.38564 v -5.05424 -5.05425 l -1.9206985,-1.08397 c -1.317205,-0.74339 -2.203963,-1.56733 -2.822222,-2.62231 -0.728496,-1.24308 -0.901524,-2.00039 -0.901524,-3.94579 0,-1.9454 0.173028,-2.7027 0.901524,-3.94579 0.618259,-1.05498 1.505017,-1.87892 2.822222,-2.62231 l 1.9206985,-1.08397 v -4.0161 -4.0161 l -1.346981,-0.687178 c -0.7408395,-0.377948 -1.9169745,-1.318094 -2.6136335,-2.089212 -0.899004,-0.995089 -1.383251,-1.963678 -1.668362,-3.337052 -0.22094,-1.06426 -0.296025,-2.389528 -0.166856,-2.945041 0.129168,-0.555512 0.620177,-1.685627 1.09113,-2.511367 0.572071,-1.003032 1.465675,-1.850843 2.692296,-2.554329 1.4273574,-0.81861 2.2678839,-1.052983 3.7762954,-1.052983 1.5032975,0 2.348915,0.234372 3.7547086,1.040655 0.997937,0.57236 2.13435206,1.563058 2.5253667,2.20155 0.39101429,0.638493 0.88432601,1.813296 1.09624667,2.610674 0.26946224,1.013889 0.27738563,2.018867 0.0263525,3.342581 -0.27053821,1.426533 -0.6833898,2.229409 -1.67595617,3.259235 -0.7243494,0.751537 -2.0313713,1.710037 -2.9044962,2.13 l -1.5875,0.763569 -0.099659,3.954698 -0.099659,3.9547 1.2666503,0.52924 c 0.6966574,0.29108 1.7520644,0.87489 2.3453488,1.29734 0.593284,0.42246 1.45564957,1.57765 1.91636816,2.56709 0.46071824,0.98945 0.83766869,2.43399 0.83766869,3.2101 0,0.77611 -0.37282295,2.20486 -0.82849647,3.175 -0.45567351,0.97014 -1.13819158,2.03888 -1.51670658,2.37498 -0.3785151,0.3361 -1.3932027,0.98364 -2.2548617,1.439 l -1.5666529,0.82791 -0.097754,4.76207 -0.097754,4.76207 2.0262814,1.03628 c 1.5152567,0.77493 2.2870194,1.45801 3.06014246,2.70851 0.63708101,1.03045 1.09756818,2.33525 1.19986315,3.39983 0.12874624,1.3399 -0.0316794,2.15942 -0.71491014,3.65177 -0.49316533,1.07721 -1.40501757,2.32392 -2.07162037,2.83236 -0.6548907,0.49951 -1.6265691,1.07391 -2.159285,1.27645 l -0.9685743,0.36825 v 4.77996 4.77996 l 0.9685743,0.36825 c 0.5327159,0.20255 1.4875301,0.76408 2.121809,1.24787 0.6342789,0.48379 1.54779555,1.65825 2.03003676,2.6099 0.53312234,1.05207 0.87680197,2.32998 0.87680197,3.26025 0,0.93015 -0.35034007,2.233 -0.89362453,3.32323 -0.55512051,1.11398 -1.3903198,2.11238 -2.204861,2.63568 -0.7211801,0.46332 -1.6287365,1.01423 -2.0167921,1.22425 -0.6440932,0.34858 -0.7140938,0.79929 -0.8035695,5.17385 l -0.098014,4.792 1.5104004,0.66812 c 0.8307204,0.36747 2.0757158,1.21029 2.7666561,1.87294 0.95124336,0.91229 1.36389775,1.69719 1.69960177,3.23276 0.37482638,1.71452 0.35978394,2.31541 -0.0973208,3.88779 -0.32141123,1.10561 -1.01116514,2.34345 -1.70087747,3.05241 -0.6381157,0.65592 -1.7952102,1.48261 -2.5713212,1.83711 -0.7761111,0.35448 -2.1254861,0.64452 -2.998611,0.64452 z m 123.1194397,-9.5451 c -0.48507,-0.011 -1.35819,-0.18658 -1.94028,-0.39005 -0.58208,-0.20346 -1.58778,-0.76494 -2.23489,-1.24773 -0.64711,-0.48279 -1.47996,-1.37534 -1.85077,-1.98346 -0.49424,-0.81053 -0.6742,-1.76482 -0.6742,-3.57511 0,-1.81028 0.17996,-2.76457 0.6742,-3.57511 0.37081,-0.60811 1.20366,-1.50545 1.85077,-1.99408 0.64711,-0.48863 1.84349,-1.08544 2.65862,-1.32626 1.19194,-0.35213 1.8022,-0.34821 3.11739,0.02 l 1.63533,0.45786 7.17972,-7.17331 7.17971,-7.17331 -0.20164,-2.85738 c -0.1737,-2.46125 -0.0984,-3.0597 0.54282,-4.31667 0.40946,-0.80261 1.21729,-1.79597 1.79519,-2.20747 0.57789,-0.41149 1.53399,-0.91664 2.12465,-1.12255 l 1.07394,-0.37436 v -5.78038 -5.78037 l -1.74202,-0.88275 c -0.95811,-0.48551 -2.18659,-1.46562 -2.72997,-2.17802 -0.82632,-1.08337 -1.00713,-1.70465 -1.10515,-3.79751 -0.10683,-2.28091 -0.0237,-2.6478 0.93946,-4.14819 0.77366,-1.20514 1.53619,-1.86595 2.84717,-2.46738 l 1.79051,-0.82141 v -6.25793 -6.25792 l -1.74202,-0.88275 c -0.95811,-0.48551 -2.18448,-1.46285 -2.72528,-2.17187 -0.8032,-1.05306 -1.0082,-1.73053 -1.11946,-3.69952 -0.11878,-2.10199 -0.0187,-2.610842 0.78188,-3.976982 0.50494,-0.861622 1.43542,-1.882584 2.06773,-2.268805 0.6323,-0.386221 1.81911,-0.899849 2.63734,-1.141396 1.27783,-0.377224 1.71524,-0.352276 3.10074,0.176849 0.88717,0.338815 2.08998,1.017347 2.67291,1.507849 0.58293,0.490502 1.37041,1.500529 1.74996,2.244504 0.38756,0.759685 0.69008,2.060941 0.69008,2.968291 0,0.91965 -0.30406,2.21162 -0.70586,2.9992 -0.38822,0.76098 -1.0629,1.72098 -1.4993,2.13334 -0.4364,0.41235 -1.38876,1.05663 -2.11636,1.43174 l -1.32292,0.682 v 6.18285 6.18285 l 1.10279,0.60095 c 0.60654,0.33053 1.566,0.97811 2.13214,1.43908 0.56614,0.46097 1.33988,1.44683 1.71943,2.19081 0.38756,0.75968 0.69008,2.06094 0.69008,2.96829 0,0.91965 -0.30406,2.21162 -0.70586,2.9992 -0.38822,0.76098 -1.0629,1.72098 -1.4993,2.13333 -0.4364,0.41236 -1.39267,1.05863 -2.12505,1.43617 l -1.3316,0.68644 0.0969,5.69115 0.0969,5.69116 1.23472,0.68083 c 0.6791,0.37445 1.60736,1.0229 2.06281,1.44099 0.45544,0.41809 1.14365,1.37566 1.52935,2.12793 0.52205,1.01822 0.66068,1.82963 0.54243,3.175 -0.0874,0.99398 -0.26543,2.12474 -0.39571,2.51279 -0.19391,0.5776 1.10145,2.04099 7.14257,8.069 l 7.37945,7.36345 1.76241,-0.45169 c 1.53973,-0.39462 1.95475,-0.37474 3.28463,0.15737 0.83721,0.33499 1.97152,0.92901 2.52067,1.32004 0.54916,0.39104 1.34173,1.37229 1.76127,2.18057 0.48423,0.9329 0.7628,2.11376 0.7628,3.23348 0,1.13003 -0.27949,2.30254 -0.77776,3.2628 -0.42776,0.82441 -1.36992,1.87991 -2.09369,2.34556 -0.72378,0.46566 -1.89371,1.047 -2.59987,1.29189 -1.03633,0.35937 -1.59472,0.35821 -2.89565,-0.006 -0.88645,-0.24819 -2.27403,-1.01816 -3.08351,-1.71104 -0.80948,-0.69289 -1.68925,-1.78027 -1.95505,-2.4164 -0.26579,-0.63613 -0.48326,-1.91812 -0.48326,-2.84885 0,-1.01826 0.28101,-2.21656 0.70555,-3.00866 0.38806,-0.72404 0.70556,-1.51692 0.70556,-1.76198 0,-0.24506 -3.13531,-3.57682 -6.96736,-7.40392 l -6.96736,-6.95838 -1.76389,0.86523 c -0.97014,0.47588 -2.24014,0.86864 -2.82222,0.87282 -0.58209,0.004 -1.87062,-0.37064 -2.86342,-0.83291 l -1.80509,-0.8405 -7.11838,7.12474 -7.11838,7.12475 0.89433,1.92128 c 0.49187,1.0567 0.89432,2.39753 0.89432,2.97961 0,0.58209 -0.37282,1.85209 -0.82849,2.82223 -0.45568,0.97014 -1.13167,2.03297 -1.50221,2.36185 -0.37053,0.32888 -1.38522,0.9207 -2.25486,1.31517 -0.86963,0.39446 -1.97803,0.70816 -2.4631,0.6971 z m -53.798609,-3.3865 c -0.582083,0.10486 -1.613958,0.0321 -2.293055,-0.16168 -0.679097,-0.19378 -1.685456,-0.77639 -2.236357,-1.29469 -0.550898,-0.5183 -1.225586,-1.37104 -1.499306,-1.89498 -0.273717,-0.52395 -0.49767,-1.52123 -0.49767,-2.2162 0,-0.69496 0.218574,-1.77441 0.485718,-2.39877 0.267145,-0.62435 0.941832,-1.55392 1.499306,-2.0657 0.557473,-0.51178 1.370774,-1.03841 1.807337,-1.1703 l 0.793749,-0.23979 v -12.85262 c 0,-10.1435 -0.09428,-12.85261 -0.447276,-12.85261 -0.245999,0 -1.017062,-0.38718 -1.71347,-0.86041 -0.696408,-0.47322 -1.534456,-1.42572 -1.862331,-2.11666 l -0.596135,-1.25627 h -9.869959 -9.869957 l -0.306973,0.80741 c -0.168836,0.44407 -0.949184,1.38759 -1.734111,2.09673 -0.810471,0.73221 -1.976328,1.39236 -2.698122,1.52777 -0.849908,0.15944 -1.786445,0.0416 -2.826833,-0.35575 -0.855712,-0.3268 -2.028758,-1.1328 -2.606766,-1.79111 -0.667071,-0.75976 -1.136516,-1.76769 -1.285254,-2.75957 -0.176234,-1.1752 -0.06197,-1.95228 0.460847,-3.1342 0.382348,-0.86436 1.15321,-1.89771 1.713022,-2.29633 0.559813,-0.39863 1.685272,-0.90449 2.501015,-1.12415 1.213544,-0.32677 1.725136,-0.29828 2.814175,0.15675 0.732049,0.30587 1.710813,0.90574 2.17503,1.33304 0.464217,0.4273 1.063826,1.29285 1.332466,1.92344 l 0.488435,1.14653 h 9.84927 c 9.548276,0 9.856134,-0.0216 10.073809,-0.70746 0.123497,-0.3891 0.629355,-1.18855 1.12413,-1.77656 0.49477,-0.588 1.356927,-1.3056 1.9159,-1.59466 l 1.016311,-0.52555 v -12.45545 -12.45544 l -1.295263,-0.85286 c -0.712392,-0.46907 -1.611598,-1.28283 -1.998232,-1.80836 -0.417576,-0.56758 -0.763816,-1.71338 -0.852829,-2.82222 -0.1233,-1.53592 -0.0021,-2.08403 0.683711,-3.09304 0.458463,-0.67448 1.369205,-1.587295 2.023872,-2.028474 0.859339,-0.579108 1.700788,-0.802145 3.026241,-0.802145 1.314157,0 2.17661,0.225731 3.034636,0.794259 0.659282,0.436843 1.573629,1.54997 2.03188,2.4736 0.670504,1.35146 0.786871,1.98816 0.595997,3.26101 -0.13607,0.90738 -0.622984,2.04016 -1.142143,2.65715 -0.497727,0.59151 -1.519988,1.38924 -2.271691,1.77273 l -1.366735,0.69726 v 12.31628 c 0,12.13703 0.01062,12.31964 0.728737,12.54756 0.400801,0.12721 1.254364,0.69281 1.896805,1.25688 0.64244,0.56407 1.365641,1.50256 1.607117,2.08553 l 0.43905,1.05996 h 10.161326 10.161323 l 0.820183,-1.46806 c 0.451097,-0.80743 1.254609,-1.78933 1.785578,-2.182 0.621256,-0.45944 1.690197,-0.76467 2.998611,-0.85622 1.697305,-0.11877 2.231841,-0.006 3.235498,0.6827 0.661257,0.45373 1.516863,1.24971 1.901345,1.76883 0.384482,0.51912 0.774996,1.73418 0.867812,2.70012 0.134094,1.39557 -5.6e-5,2.05663 -0.653182,3.21871 -0.452067,0.80435 -1.363303,1.79703 -2.024966,2.20596 -0.676652,0.41819 -1.84508,0.75786 -2.670432,0.77632 -0.807075,0.018 -2.124886,-0.26362 -2.928472,-0.62592 -1.051172,-0.47393 -1.691178,-1.09249 -2.28129,-2.20486 L 87.83835,141.38094 H 77.526166 67.213981 l -0.715267,1.40205 c -0.432714,0.84818 -1.270628,1.71918 -2.121119,2.20486 l -1.405854,0.80282 -0.0028,12.77164 -0.0028,12.77164 1.238822,0.58786 c 0.681351,0.32332 1.624238,1.0459 2.095302,1.60573 0.471064,0.55982 0.959298,1.70349 1.084961,2.54148 0.157946,1.05325 0.05148,1.94723 -0.344869,2.89583 -0.315341,0.75472 -0.844729,1.67209 -1.176422,2.0386 -0.331688,0.36652 -1.000322,0.86914 -1.48585,1.11695 -0.485528,0.24781 -1.359027,0.53636 -1.94111,0.64122 z"
         style="fill:#a3a2e4;stroke-width:0.352778" />-->
      <path
         style="fill:#ab00fa;stroke-width:0.352778"
         d="m -6.2663287,195.12974 c -0.4365624,0.0696 -1.1112499,0.0634 -1.4993055,-0.0137 -0.3880555,-0.0772 -1.0598315,-0.21581 -1.4928355,-0.30807 -0.4330044,-0.0923 -1.3551693,-0.66636 -2.0492563,-1.27578 -0.694086,-0.60942 -1.570123,-1.71205 -1.946747,-2.45029 -0.376625,-0.73825 -0.681286,-2.02328 -0.677024,-2.85562 0.0043,-0.83235 0.29684,-2.14973 0.650176,-2.9275 0.353336,-0.77778 1.225886,-1.92642 1.939,-2.55254 0.713114,-0.62612 1.6947219,-1.23834 2.1813509,-1.36047 0.4866291,-0.12214 1.0393426,-0.51087 1.2282526,-0.86385 0.1889097,-0.35298 0.3413044,-2.43816 0.338655,-4.63373 -0.00265,-2.19557 -0.09075,-4.31169 -0.1957789,-4.7025 -0.1110717,-0.41329 -0.9524905,-1.07743 -2.0112499,-1.5875 -1.0011587,-0.48232 -2.3021197,-1.48699 -2.8910257,-2.2326 -0.968739,-1.22653 -1.070739,-1.59865 -1.070739,-3.90633 0,-2.2061 0.134118,-2.75332 0.992847,-4.05095 0.683344,-1.0326 1.551966,-1.75934 2.7864388,-2.33128 0.9864756,-0.45704 1.9263264,-1.04031 2.0885566,-1.29616 0.1622305,-0.25585 0.2973951,-2.31752 0.3003662,-4.58147 0.00296,-2.26396 -0.086082,-4.35469 -0.1978959,-4.64607 -0.111814,-0.29139 -1.0724092,-0.95501 -2.1346562,-1.47472 -1.3019315,-0.63697 -2.2416625,-1.41382 -2.8835075,-2.38371 -0.813888,-1.22987 -0.952149,-1.80918 -0.952149,-3.98946 0,-2.31973 0.09832,-2.67338 1.086001,-3.90631 0.597302,-0.74562 1.906989,-1.8023 2.910417,-2.34819 l 1.824415,-0.99253 -0.0054,-5.0047 c -0.00296,-2.75258 -0.1220336,-5.16344 -0.2645834,-5.35747 -0.1425497,-0.19402 -1.0322693,-0.74211 -1.9771546,-1.21798 -1.020969,-0.51417 -2.075923,-1.40609 -2.600245,-2.1984 -0.48525,-0.73326 -0.962002,-2.04057 -1.05945,-2.90512 -0.09745,-0.86455 -0.0693,-2.14693 0.06254,-2.84973 0.133332,-0.71072 0.783431,-1.87963 1.464851,-2.63388 0.673822,-0.74584 1.934852,-1.68968 2.8022879,-2.09743 l 1.5771562,-0.74135 -0.0054,-4.14333 c -0.00296,-2.27883 -0.1220336,-4.320442 -0.2645834,-4.536913 -0.1425497,-0.21647 -0.8941812,-0.716958 -1.6702923,-1.112196 -0.7761114,-0.395237 -1.7607214,-1.093417 -2.1880234,-1.551509 -0.427302,-0.458093 -1.022615,-1.420944 -1.322917,-2.139668 -0.300302,-0.718724 -0.546004,-1.954754 -0.546004,-2.746732 0,-0.791978 0.256248,-1.948015 0.56944,-2.568969 0.313192,-0.620955 0.98788,-1.579744 1.499306,-2.130643 0.511426,-0.550898 1.406115,-1.251224 1.9881984,-1.55628 0.5892874,-0.308831 1.918251,-0.554647 2.9986111,-0.554647 1.08036,0 2.4093236,0.245816 2.998611,0.554647 0.5820833,0.305056 1.4864742,1.005382 2.009758,1.55628 0.5232837,0.550899 1.19797116,1.591848 1.49930546,2.31322 0.3013343,0.721372 0.54699533,1.832622 0.54591336,2.469444 -0.001094,0.636822 -0.16476838,1.744024 -0.36374774,2.46045 -0.22782177,0.820274 -0.94096658,1.812411 -1.92598558,2.67946 -0.8603132,0.757278 -2.0856892,1.526191 -2.7230581,1.708696 l -1.158852,0.331827 -0.098515,4.455823 -0.098515,4.45583 2.0307529,1.00523 c 1.4853655,0.73526 2.2459653,1.38268 2.8320978,2.41066 0.44073933,0.77299 0.96919583,2.01108 1.17434775,2.75132 0.27019954,0.97494 0.26015772,1.70416 -0.0364359,2.64583 -0.22519145,0.71497 -0.78162218,1.87963 -1.23651285,2.58812 -0.537083,0.83651 -1.5136872,1.6241 -2.7853417,2.24626 l -1.9582672,0.95809 v 5.22958 5.22958 l 2.1426476,1.14202 c 1.718486,0.91594 2.3034906,1.46127 2.9551449,2.75472 0.44687343,0.88698 0.91855565,2.10364 1.04818278,2.70367 0.1579513,0.73116 -0.003422,1.73009 -0.489307,3.0287 -0.39874612,1.06575 -1.08055718,2.26345 -1.51513598,2.66157 -0.4345788,0.39812 -1.4452515,1.0525 -2.2459392,1.45419 -0.8006877,0.40169 -1.5547502,0.98821 -1.6756944,1.30339 -0.1209442,0.31517 -0.2198987,2.46506 -0.2198987,4.77752 0,3.73411 0.078933,4.28342 0.7055555,4.91004 0.3880556,0.38806 0.8890084,0.70555 1.1132287,0.70555 0.2242203,0 0.9400607,0.40608 1.5907564,0.90239 0.6506958,0.4963 1.5265252,1.56787 1.94628762,2.38125 0.44931364,0.87064 0.76366721,2.13177 0.76433008,3.06636 6.35e-4,0.87313 -0.28348269,2.14313 -0.63133744,2.82223 -0.34785466,0.67909 -0.97108106,1.60735 -1.38494756,2.0628 -0.4138666,0.45544 -1.3874845,1.15146 -2.1635956,1.54669 -0.7761111,0.39524 -1.5277426,0.89573 -1.6702923,1.1122 -0.1425497,0.21647 -0.2616122,2.41765 -0.2645833,4.8915 -0.00484,4.03171 0.067729,4.57105 0.7001534,5.20347 0.3880556,0.38806 0.9472274,0.70556 1.2426043,0.70556 0.2953769,0 1.245356,0.65289 2.1110645,1.45087 0.9495296,0.87525 1.71542134,1.95997 1.93042809,2.73403 0.19602697,0.70574 0.35381141,1.83878 0.35063218,2.51787 -0.003175,0.6791 -0.29487318,1.87109 -0.64820904,2.64886 -0.35333586,0.77778 -1.22588573,1.92642 -1.93899993,2.55255 -0.7131138,0.62612 -1.6905343,1.22007 -2.1720456,1.31989 -0.481511,0.0998 -1.232662,0.23845 -1.6692245,0.30806 z M 116.11831,185.80602 c -0.22645,-0.0137 -1.1261,-0.34127 -1.99923,-0.72792 -0.87312,-0.38665 -1.95977,-1.05012 -2.41476,-1.47438 -0.455,-0.42426 -1.05031,-1.20007 -1.32292,-1.72401 -0.27261,-0.52394 -0.49565,-1.84151 -0.49565,-2.92794 0,-1.08642 0.23242,-2.42477 0.5165,-2.9741 0.28407,-0.54934 0.99352,-1.40019 1.57655,-1.89077 0.58303,-0.49059 1.83092,-1.14802 2.77309,-1.46096 1.55293,-0.5158 1.83495,-0.51804 3.01761,-0.0239 0.89846,0.3754 1.49427,0.43973 1.91389,0.20665 0.33512,-0.18614 3.85757,-3.59825 7.82767,-7.58246 l 7.21837,-7.24403 -0.4274,-1.18193 c -0.23506,-0.65007 -0.42739,-1.85168 -0.42739,-2.67025 0,-0.81858 0.3139,-2.10362 0.69757,-2.85566 0.38366,-0.75204 1.17039,-1.70403 1.74828,-2.11553 0.5779,-0.4115 1.53399,-0.91664 2.12466,-1.12255 l 1.07393,-0.37438 v -6.28813 -6.28813 l -1.21268,-0.40022 c -0.66697,-0.22012 -1.6239,-0.72369 -2.12651,-1.11904 -0.5026,-0.39535 -1.22689,-1.33249 -1.60954,-2.08253 -0.39264,-0.76963 -0.69571,-2.06751 -0.69571,-2.97931 0,-0.91326 0.30325,-2.21004 0.69757,-2.98296 0.38366,-0.75204 1.13772,-1.6705 1.67569,-2.04102 0.53797,-0.37052 1.49406,-0.8794 2.12466,-1.13084 l 1.14652,-0.45717 v -6.80901 -6.80901 l -1.21268,-0.40022 c -0.66697,-0.22012 -1.6239,-0.72369 -2.12651,-1.11904 -0.5026,-0.39534 -1.22689,-1.33248 -1.60954,-2.08252 -0.39264,-0.76964 -0.69571,-2.06752 -0.69571,-2.97932 0,-0.91326 0.30325,-2.210037 0.69757,-2.982959 0.38366,-0.752041 1.13772,-1.669817 1.67569,-2.039503 0.53797,-0.369685 1.71383,-0.944797 2.61302,-1.278027 1.60628,-0.595266 1.66824,-0.591124 3.54001,0.236662 1.04782,0.463393 2.332,1.349854 2.85374,1.969913 0.52175,0.62006 1.12126,1.768447 1.33224,2.551974 0.21098,0.78352 0.27914,1.92724 0.15148,2.5416 -0.12767,0.61435 -0.54999,1.66872 -0.9385,2.34303 -0.38851,0.67432 -1.03934,1.46807 -1.44629,1.76389 -0.40694,0.29582 -1.22463,0.77734 -1.81707,1.07003 l -1.07717,0.53218 -0.0956,6.73104 -0.0956,6.73104 1.43591,0.64751 c 0.78975,0.35612 1.89766,1.1734 2.46202,1.81618 0.56436,0.64277 1.20124,1.81904 1.41528,2.61393 0.21404,0.7949 0.28471,1.94792 0.15705,2.56228 -0.12767,0.61435 -0.54999,1.66872 -0.9385,2.34303 -0.38851,0.67432 -1.03934,1.46807 -1.44629,1.76389 -0.40694,0.29582 -1.22463,0.77732 -1.81707,1.06999 l -1.07717,0.53213 -0.0961,6.2017 -0.0961,6.2017 1.43639,0.64772 c 0.79002,0.35625 1.89815,1.17363 2.46251,1.8164 0.56436,0.64277 1.20445,1.83098 1.42242,2.64046 0.26828,0.99632 0.28665,1.88105 0.0569,2.73866 -0.18669,0.69678 -0.43934,1.505 -0.56144,1.79604 -0.15423,0.36764 2.12778,2.87694 7.47594,8.22056 l 7.69793,7.6914 1.68713,-0.5728 c 1.55928,-0.52939 1.79673,-0.52894 3.13322,0.006 0.79535,0.31824 1.9066,0.90652 2.46944,1.3073 0.56284,0.40078 1.32605,1.43488 1.69603,2.29801 0.36998,0.86312 0.67269,2.09862 0.67269,2.74554 0,0.64693 -0.30271,1.88243 -0.67269,2.74555 -0.36998,0.86313 -1.13319,1.89724 -1.69603,2.29802 -0.56284,0.40077 -1.68214,0.99228 -2.48732,1.31445 -1.24188,0.4969 -1.66694,0.5189 -2.80188,0.14504 -0.73585,-0.24239 -1.83253,-0.76447 -2.43706,-1.16016 -0.60453,-0.3957 -1.43797,-1.21392 -1.85209,-1.81828 -0.58556,-0.85457 -0.75293,-1.62738 -0.75293,-3.47655 0,-1.8199 0.18622,-2.70292 0.79375,-3.76385 l 0.79375,-1.38611 -7.22871,-7.23864 c -3.9758,-3.98125 -7.37849,-7.23863 -7.56154,-7.23863 -0.18305,0 -1.05427,0.34925 -1.93605,0.77611 -0.88178,0.42686 -2.08619,0.77611 -2.67647,0.77611 -0.59028,0 -1.7947,-0.34925 -2.67648,-0.77611 -0.88177,-0.42686 -1.75016,-0.77611 -1.92974,-0.77611 -0.17958,0 -3.61117,3.28186 -7.62574,7.29302 l -7.29923,7.29302 0.63382,1.26184 c 0.34861,0.69401 0.81956,1.8365 1.04657,2.53887 0.35166,1.08809 0.30599,1.56231 -0.30865,3.20509 -0.39675,1.06043 -1.07694,2.26101 -1.51152,2.66796 -0.43458,0.40695 -1.55737,1.06809 -2.49509,1.46922 -0.93771,0.40112 -1.89021,0.7181 -2.11666,0.70439 z M 61.555197,182.3013 c -0.679097,-3.6e-4 -1.710972,-0.29495 -2.293056,-0.6545 -0.582083,-0.35955 -1.325096,-0.95456 -1.651141,-1.32224 -0.32604,-0.36769 -0.770794,-1.13666 -0.988335,-1.70884 -0.293426,-0.77177 -0.291126,-1.47551 0.0089,-2.72622 0.281909,-1.17513 0.772111,-2.00872 1.617973,-2.7514 0.667442,-0.58602 1.440544,-1.06549 1.718007,-1.06549 0.277463,0 0.668817,-0.30707 0.869671,-0.68237 0.231987,-0.43347 0.363217,-5.16224 0.359788,-12.96458 -0.0028,-6.75522 -0.122033,-12.44859 -0.264584,-12.65193 -0.14255,-0.20335 -0.984574,-0.78855 -1.871168,-1.30045 -1.123964,-0.64897 -1.807697,-1.36475 -2.258438,-2.36432 l -0.646465,-1.43357 H 45.970664 35.784957 l -0.367545,0.97014 c -0.202152,0.53357 -0.714159,1.34241 -1.137796,1.7974 -0.42364,0.455 -1.198929,1.05031 -1.722871,1.32292 -0.523943,0.27261 -1.476442,0.4954 -2.116667,0.4951 -0.640225,-3e-4 -1.716507,-0.27811 -2.391738,-0.61736 -0.675227,-0.33925 -1.58804,-1.15623 -2.028472,-1.81551 -0.507979,-0.7604 -0.80058,-1.72784 -0.800234,-2.64583 3.03e-4,-0.79593 0.278116,-2.00276 0.617361,-2.68186 0.398776,-0.79826 1.177981,-1.52309 2.204314,-2.05049 1.131824,-0.58161 1.971022,-0.76794 2.923625,-0.64916 0.734867,0.0916 1.871306,0.57482 2.525419,1.07373 0.654117,0.49892 1.48161,1.50542 1.838879,2.23666 l 0.649577,1.32954 h 10.049414 10.049411 l 0.492573,-1.05834 c 0.270912,-0.58208 0.749304,-1.35303 1.063085,-1.71323 0.313786,-0.36019 1.165828,-0.95873 1.893433,-1.33009 l 1.322916,-0.67518 V 121.99431 109.3248 l -1.4671,-0.99345 c -0.806905,-0.5464 -1.777489,-1.41272 -2.156852,-1.92516 -0.460219,-0.62166 -0.698807,-1.53213 -0.716968,-2.73601 -0.0194,-1.28664 0.175497,-2.07582 0.679341,-2.75066 0.388609,-0.5205 1.144958,-1.273675 1.680774,-1.673719 0.694786,-0.518734 1.505885,-0.727354 2.827885,-0.727354 1.476851,0 2.111198,0.196423 3.120488,0.966245 0.722916,0.551398 1.448245,1.515998 1.689397,2.246688 0.232424,0.70425 0.343072,1.98589 0.245893,2.84809 -0.109506,0.97152 -0.494069,1.91194 -1.011305,2.47307 -0.459034,0.498 -1.390233,1.14096 -2.069331,1.4288 -0.679097,0.28784 -1.351354,0.70395 -1.493904,0.92467 -0.142551,0.22073 -0.261613,5.83851 -0.264583,12.48396 -0.0049,11.06579 0.04656,12.12912 0.61196,12.63488 0.339548,0.30373 1.162699,0.89904 1.829219,1.32292 0.666525,0.42387 1.540951,1.40567 1.943174,2.18179 l 0.731312,1.41111 10.296998,0.0935 c 7.957837,0.0722 10.385209,-0.008 10.685317,-0.35278 0.213575,-0.24545 0.669491,-1.00189 1.013143,-1.68099 0.412125,-0.81441 1.183678,-1.51605 2.266509,-2.06115 1.30261,-0.65573 1.941071,-0.77584 3.09119,-0.58153 0.841922,0.14224 1.953034,0.687 2.650776,1.29962 0.706825,0.6206 1.354095,1.62229 1.572567,2.43362 0.259873,0.9651 0.259873,1.79267 0,2.75777 -0.221891,0.82404 -0.868758,1.81566 -1.60757,2.46434 -0.679947,0.59701 -1.638854,1.18651 -2.130898,1.31 -0.492043,0.1235 -1.477595,0.12994 -2.190118,0.0143 -0.712519,-0.11562 -1.696089,-0.50572 -2.185709,-0.86687 -0.48962,-0.36116 -1.218297,-1.27812 -1.619285,-2.03769 l -0.729068,-1.38104 -10.648802,-0.0934 -10.648801,-0.0934 -0.563132,1.40741 c -0.407286,1.01791 -1.042875,1.7026 -2.296619,2.47403 l -1.733483,1.06663 0.09254,12.94202 0.09254,12.94203 1.5875,0.91984 c 0.932219,0.54015 1.842107,1.42341 2.204314,2.13981 0.339246,0.67098 0.617058,1.87117 0.617361,2.6671 3.46e-4,0.918 -0.292255,1.88543 -0.800234,2.64583 -0.440432,0.65929 -1.353244,1.47627 -2.028472,1.81552 -0.67523,0.33924 -1.783316,0.61646 -2.462413,0.61604 z"
         id="path2598"
         sodipodi:nodetypes="sccsscssssssssssssssssssscsssssssscssssssssssssssssscccsssssscccsssssssssssssssssssssssssssscsssssssssscssssscccssssssscccsssssssssssssscccssssssscccsssssscscssssssssssscssssssscssssscccssssssscssscccssssssssscsscccssscccsssssssssssscssscccssssssssssscccsscccssssscc" />
      <path
         style="fill:#1d1cf8;stroke-width:0.352778"
         d="m -6.2663287,195.12974 c -0.4365624,0.0696 -1.1112499,0.0634 -1.4993055,-0.0137 -0.3880555,-0.0772 -1.0598315,-0.21581 -1.4928355,-0.30807 -0.4330044,-0.0923 -1.3551693,-0.66636 -2.0492563,-1.27578 -0.694086,-0.60942 -1.570123,-1.71205 -1.946747,-2.45029 -0.376625,-0.73825 -0.681286,-2.02328 -0.677024,-2.85562 0.0043,-0.83235 0.29684,-2.14973 0.650176,-2.9275 0.353336,-0.77778 1.225886,-1.92642 1.939,-2.55254 0.713114,-0.62612 1.6947219,-1.23834 2.1813509,-1.36047 0.4866291,-0.12214 1.0393426,-0.51087 1.2282526,-0.86385 0.1889097,-0.35298 0.3413044,-2.43816 0.338655,-4.63373 -0.00265,-2.19557 -0.09075,-4.31169 -0.1957789,-4.7025 -0.1110717,-0.41329 -0.9524905,-1.07743 -2.0112499,-1.5875 -1.0011587,-0.48232 -2.3021197,-1.48699 -2.8910257,-2.2326 -0.968739,-1.22653 -1.070739,-1.59865 -1.070739,-3.90633 0,-2.2061 0.134118,-2.75332 0.992847,-4.05095 0.683344,-1.0326 1.551966,-1.75934 2.7864388,-2.33128 0.9864756,-0.45704 1.9263264,-1.04031 2.0885566,-1.29616 0.1622305,-0.25585 0.2973951,-2.31752 0.3003662,-4.58147 0.00296,-2.26396 -0.086082,-4.35469 -0.1978959,-4.64607 -0.111814,-0.29139 -1.0724092,-0.95501 -2.1346562,-1.47472 -1.3019315,-0.63697 -2.2416625,-1.41382 -2.8835075,-2.38371 -0.813888,-1.22987 -0.952149,-1.80918 -0.952149,-3.98946 0,-2.31973 0.09832,-2.67338 1.086001,-3.90631 0.597302,-0.74562 1.906989,-1.8023 2.910417,-2.34819 l 1.824415,-0.99253 -0.0054,-5.0047 c -0.00296,-2.75258 -0.1220336,-5.16344 -0.2645834,-5.35747 -0.1425497,-0.19402 -1.0322693,-0.74211 -1.9771546,-1.21798 -1.020969,-0.51417 -2.075923,-1.40609 -2.600245,-2.1984 -0.48525,-0.73326 -0.962002,-2.04057 -1.05945,-2.90512 -0.09745,-0.86455 -0.0693,-2.14693 0.06254,-2.84973 0.133332,-0.71072 0.783431,-1.87963 1.464851,-2.63388 0.673822,-0.74584 1.934852,-1.68968 2.8022879,-2.09743 l 1.5771562,-0.74135 -0.0054,-4.14333 c -0.00296,-2.27883 -0.1220336,-4.320442 -0.2645834,-4.536913 -0.1425497,-0.21647 -0.8941812,-0.716958 -1.6702923,-1.112196 -0.7761114,-0.395237 -1.7607214,-1.093417 -2.1880234,-1.551509 -0.427302,-0.458093 -1.022615,-1.420944 -1.322917,-2.139668 -0.300302,-0.718724 -0.546004,-1.954754 -0.546004,-2.746732 0,-0.791978 0.256248,-1.948015 0.56944,-2.568969 0.313192,-0.620955 0.98788,-1.579744 1.499306,-2.130643 0.511426,-0.550898 1.406115,-1.251224 1.9881984,-1.55628 0.5892874,-0.308831 1.918251,-0.554647 2.9986111,-0.554647 1.08036,0 2.4093236,0.245816 2.998611,0.554647 0.5820833,0.305056 1.4864742,1.005382 2.009758,1.55628 0.5232837,0.550899 1.19797116,1.591848 1.49930546,2.31322 0.3013343,0.721372 0.54699533,1.832622 0.54591336,2.469444 -0.001094,0.636822 -0.16476838,1.744024 -0.36374774,2.46045 -0.22782177,0.820274 -0.94096658,1.812411 -1.92598558,2.67946 -0.8603132,0.757278 -2.0856892,1.526191 -2.7230581,1.708696 l -1.158852,0.331827 -0.098515,4.455823 -0.098515,4.45583 2.0307529,1.00523 c 1.4853655,0.73526 2.2459653,1.38268 2.8320978,2.41066 0.44073933,0.77299 0.96919583,2.01108 1.17434775,2.75132 0.27019954,0.97494 0.26015772,1.70416 -0.0364359,2.64583 -0.22519145,0.71497 -0.78162218,1.87963 -1.23651285,2.58812 -0.537083,0.83651 -1.5136872,1.6241 -2.7853417,2.24626 l -1.9582672,0.95809 v 5.22958 5.22958 l 2.1426476,1.14202 c 1.718486,0.91594 2.3034906,1.46127 2.9551449,2.75472 0.44687343,0.88698 0.91855565,2.10364 1.04818278,2.70367 0.1579513,0.73116 -0.003422,1.73009 -0.489307,3.0287 -0.39874612,1.06575 -1.08055718,2.26345 -1.51513598,2.66157 -0.4345788,0.39812 -1.4452515,1.0525 -2.2459392,1.45419 -0.8006877,0.40169 -1.5547502,0.98821 -1.6756944,1.30339 -0.1209442,0.31517 -0.2198987,2.46506 -0.2198987,4.77752 0,3.73411 0.078933,4.28342 0.7055555,4.91004 0.3880556,0.38806 0.8890084,0.70555 1.1132287,0.70555 0.2242203,0 0.9400607,0.40608 1.5907564,0.90239 0.6506958,0.4963 1.5265252,1.56787 1.94628762,2.38125 0.44931364,0.87064 0.76366721,2.13177 0.76433008,3.06636 6.35e-4,0.87313 -0.28348269,2.14313 -0.63133744,2.82223 -0.34785466,0.67909 -0.97108106,1.60735 -1.38494756,2.0628 -0.4138666,0.45544 -1.3874845,1.15146 -2.1635956,1.54669 -0.7761111,0.39524 -1.5277426,0.89573 -1.6702923,1.1122 -0.1425497,0.21647 -0.2616122,2.41765 -0.2645833,4.8915 -0.00484,4.03171 0.067729,4.57105 0.7001534,5.20347 0.3880556,0.38806 0.9472274,0.70556 1.2426043,0.70556 0.2953769,0 1.245356,0.65289 2.1110645,1.45087 0.9495296,0.87525 1.71542134,1.95997 1.93042809,2.73403 0.19602697,0.70574 0.35381141,1.83878 0.35063218,2.51787 -0.003175,0.6791 -0.29487318,1.87109 -0.64820904,2.64886 -0.35333586,0.77778 -1.22588573,1.92642 -1.93899993,2.55255 -0.7131138,0.62612 -1.6905343,1.22007 -2.1720456,1.31989 -0.481511,0.0998 -1.232662,0.23845 -1.6692245,0.30806 z m -0.6915015,-1.18825 c 0.8323477,0.002 2.1260378,-0.30923 2.8748664,-0.69125 0.748829,-0.38203 1.7290224,-1.28924 2.178208,-2.01604 0.5726257,-0.92653 0.8167006,-1.85603 0.8167006,-3.1102 0,-1.25418 -0.2440749,-2.18368 -0.8167006,-3.11021 -0.4491856,-0.7268 -1.429379,-1.63401 -2.178208,-2.01604 -0.7488286,-0.38202 -2.0091554,-0.69459 -2.8007259,-0.69459 -0.7915706,0 -2.0282073,0.30666 -2.7480817,0.68145 -0.7198746,0.3748 -1.7000686,1.2677 -2.1782076,1.98424 -0.642254,0.96247 -0.86895,1.77511 -0.867833,3.11091 9.53e-4,1.15834 0.249995,2.23074 0.692956,2.98412 0.380295,0.6468 1.326444,1.55811 2.1025552,2.02513 0.9024758,0.54307 1.9566022,0.85035 2.9244706,0.85248 z m -0.2110264,-24.6911 c 0.5370445,0 1.6308376,-0.26184 2.4306512,-0.58186 0.8901009,-0.35615 1.8508002,-1.12934 2.4765835,-1.99321 0.7968385,-1.1 1.0223764,-1.79265 1.0223764,-3.13983 0,-0.95066 -0.232423,-2.17793 -0.5164959,-2.72727 -0.2840729,-0.54933 -0.9944149,-1.40093 -1.578538,-1.89244 -0.5841231,-0.49151 -1.6420556,-1.08507 -2.3509611,-1.31903 -0.9826156,-0.32429 -1.6097334,-0.32926 -2.638897,-0.0209 -0.7424878,0.22246 -1.8549675,0.82939 -2.4721775,1.34873 -0.617211,0.51935 -1.33874,1.46252 -1.603399,2.09594 -0.264659,0.63342 -0.478586,1.75208 -0.475395,2.48592 0.0032,0.73383 0.361034,1.96924 0.795203,2.74536 0.520134,0.92978 1.325815,1.68186 2.3620018,2.20486 0.8649317,0.43656 2.0120034,0.79375 2.5490476,0.79375 z m -0.067611,-24.35912 c 0.097014,0.007 0.7667713,-0.15045 1.48835,-0.35085 0.7215787,-0.2004 1.7988431,-0.77405 2.3939206,-1.27478 0.5950779,-0.50072 1.3143826,-1.35986 1.5984555,-1.9092 0.2840729,-0.54933 0.5164959,-1.77695 0.5164959,-2.72803 0,-1.21575 -0.2387956,-2.08359 -0.804182,-2.92256 -0.4423,-0.65633 -1.4344875,-1.55032 -2.204861,-1.98665 -0.7703735,-0.43632 -1.9623542,-0.79593 -2.6488456,-0.79912 -0.6864918,-0.003 -1.9558384,0.35139 -2.8207701,0.78795 -1.0361867,0.523 -1.8418677,1.27508 -2.3620017,2.20486 -0.434169,0.77611 -0.792011,2.01152 -0.795203,2.74536 -0.0032,0.73383 0.211863,1.84508 0.477898,2.46944 0.266036,0.62436 0.885985,1.50592 1.377664,1.95902 0.49168,0.4531 1.5043266,1.04145 2.2503267,1.30743 0.7460001,0.26599 1.4357388,0.4897 1.5327527,0.49713 z m 1.3688574,-25.4128 c 0.6723034,-0.15163 1.6315312,-0.57863 2.1316174,-0.94891 0.5000861,-0.37026 1.2664347,-1.19803 1.7029972,-1.83947 0.572069,-0.84054 0.79375,-1.67901 0.79375,-3.0022 0,-1.32319 -0.221681,-2.16166 -0.79375,-3.0022 -0.4365625,-0.64144 -1.2419537,-1.49835 -1.789758,-1.90425 -0.7580118,-0.56165 -1.5166791,-0.73799 -3.1749999,-0.73799 -1.7180665,0 -2.4232079,0.17418 -3.3335065,0.82345 -0.634983,0.45291 -1.46842,1.43877 -1.852083,2.19081 -0.383663,0.75204 -0.697569,1.9344 -0.697569,2.62746 0,0.69306 0.217666,1.77094 0.483701,2.3953 0.266036,0.62436 0.884078,1.50413 1.373427,1.95504 0.489349,0.45091 1.5746434,1.02207 2.4117646,1.26924 0.9513355,0.2809 1.980379,0.34604 2.7444092,0.17372 z M -6.9605533,96.211584 c 0.6368221,0.0076 1.671177,-0.20067 2.2985669,-0.46281 0.6273895,-0.262141 1.6434339,-1.049192 2.2578765,-1.749003 0.7368356,-0.839209 1.198283,-1.813296 1.3554304,-2.861229 0.18813776,-1.254593 0.075462,-1.925145 -0.5355968,-3.187424 -0.4256221,-0.879218 -1.2439169,-1.93329 -1.8184328,-2.342381 -0.5745163,-0.409091 -1.6620857,-0.826628 -2.4168216,-0.92786 -0.7547359,-0.101231 -1.9402682,-0.07749 -2.6345165,0.05275 -0.7469282,0.140124 -1.7584118,0.732945 -2.4775138,1.452048 -0.668385,0.668385 -1.387172,1.853729 -1.597303,2.634098 -0.210132,0.78037 -0.27478,1.990691 -0.143663,2.689604 0.131117,0.698913 0.73023,1.830921 1.331362,2.515573 0.601133,0.684652 1.5721698,1.453623 2.1578606,1.708825 0.5856908,0.255202 1.5859286,0.470217 2.2227511,0.477812 z M 116.11831,185.80602 c -0.22645,-0.0137 -1.1261,-0.34127 -1.99923,-0.72792 -0.87312,-0.38665 -1.95977,-1.05012 -2.41476,-1.47438 -0.455,-0.42426 -1.05031,-1.20007 -1.32292,-1.72401 -0.27261,-0.52394 -0.49565,-1.84151 -0.49565,-2.92794 0,-1.08642 0.23242,-2.42477 0.5165,-2.9741 0.28407,-0.54934 0.99352,-1.40019 1.57655,-1.89077 0.58303,-0.49059 1.83092,-1.14802 2.77309,-1.46096 1.55293,-0.5158 1.83495,-0.51804 3.01761,-0.0239 0.89846,0.3754 1.49427,0.43973 1.91389,0.20665 0.33512,-0.18614 3.85757,-3.59825 7.82767,-7.58246 l 7.21837,-7.24403 -0.4274,-1.18193 c -0.23506,-0.65007 -0.42739,-1.85168 -0.42739,-2.67025 0,-0.81858 0.3139,-2.10362 0.69757,-2.85566 0.38366,-0.75204 1.17039,-1.70403 1.74828,-2.11553 0.5779,-0.4115 1.53399,-0.91664 2.12466,-1.12255 l 1.07393,-0.37438 v -6.28813 -6.28813 l -1.21268,-0.40022 c -0.66697,-0.22012 -1.6239,-0.72369 -2.12651,-1.11904 -0.5026,-0.39535 -1.22689,-1.33249 -1.60954,-2.08253 -0.39264,-0.76963 -0.69571,-2.06751 -0.69571,-2.97931 0,-0.91326 0.30325,-2.21004 0.69757,-2.98296 0.38366,-0.75204 1.13772,-1.6705 1.67569,-2.04102 0.53797,-0.37052 1.49406,-0.8794 2.12466,-1.13084 l 1.14652,-0.45717 v -6.80901 -6.80901 l -1.21268,-0.40022 c -0.66697,-0.22012 -1.6239,-0.72369 -2.12651,-1.11904 -0.5026,-0.39534 -1.22689,-1.33248 -1.60954,-2.08252 -0.39264,-0.76964 -0.69571,-2.06752 -0.69571,-2.97932 0,-0.91326 0.30325,-2.210037 0.69757,-2.982959 0.38366,-0.752041 1.13772,-1.669817 1.67569,-2.039503 0.53797,-0.369685 1.71383,-0.944797 2.61302,-1.278027 1.60628,-0.595266 1.66824,-0.591124 3.54001,0.236662 1.04782,0.463393 2.332,1.349854 2.85374,1.969913 0.52175,0.62006 1.12126,1.768447 1.33224,2.551974 0.21098,0.78352 0.27914,1.92724 0.15148,2.5416 -0.12767,0.61435 -0.54999,1.66872 -0.9385,2.34303 -0.38851,0.67432 -1.03934,1.46807 -1.44629,1.76389 -0.40694,0.29582 -1.22463,0.77734 -1.81707,1.07003 l -1.07717,0.53218 -0.0956,6.73104 -0.0956,6.73104 1.43591,0.64751 c 0.78975,0.35612 1.89766,1.1734 2.46202,1.81618 0.56436,0.64277 1.20124,1.81904 1.41528,2.61393 0.21404,0.7949 0.28471,1.94792 0.15705,2.56228 -0.12767,0.61435 -0.54999,1.66872 -0.9385,2.34303 -0.38851,0.67432 -1.03934,1.46807 -1.44629,1.76389 -0.40694,0.29582 -1.22463,0.77732 -1.81707,1.06999 l -1.07717,0.53213 -0.0961,6.2017 -0.0961,6.2017 1.43639,0.64772 c 0.79002,0.35625 1.89815,1.17363 2.46251,1.8164 0.56436,0.64277 1.20445,1.83098 1.42242,2.64046 0.26828,0.99632 0.28665,1.88105 0.0569,2.73866 -0.18669,0.69678 -0.43934,1.505 -0.56144,1.79604 -0.15423,0.36764 2.12778,2.87694 7.47594,8.22056 l 7.69793,7.6914 1.68713,-0.5728 c 1.55928,-0.52939 1.79673,-0.52894 3.13322,0.006 0.79535,0.31824 1.9066,0.90652 2.46944,1.3073 0.56284,0.40078 1.32605,1.43488 1.69603,2.29801 0.36998,0.86312 0.67269,2.09862 0.67269,2.74554 0,0.64693 -0.30271,1.88243 -0.67269,2.74555 -0.36998,0.86313 -1.13319,1.89724 -1.69603,2.29802 -0.56284,0.40077 -1.68214,0.99228 -2.48732,1.31445 -1.24188,0.4969 -1.66694,0.5189 -2.80188,0.14504 -0.73585,-0.24239 -1.83253,-0.76447 -2.43706,-1.16016 -0.60453,-0.3957 -1.43797,-1.21392 -1.85209,-1.81828 -0.58556,-0.85457 -0.75293,-1.62738 -0.75293,-3.47655 0,-1.8199 0.18622,-2.70292 0.79375,-3.76385 l 0.79375,-1.38611 -7.22871,-7.23864 c -3.9758,-3.98125 -7.37849,-7.23863 -7.56154,-7.23863 -0.18305,0 -1.05427,0.34925 -1.93605,0.77611 -0.88178,0.42686 -2.08619,0.77611 -2.67647,0.77611 -0.59028,0 -1.7947,-0.34925 -2.67648,-0.77611 -0.88177,-0.42686 -1.75016,-0.77611 -1.92974,-0.77611 -0.17958,0 -3.61117,3.28186 -7.62574,7.29302 l -7.29923,7.29302 0.63382,1.26184 c 0.34861,0.69401 0.81956,1.8365 1.04657,2.53887 0.35166,1.08809 0.30599,1.56231 -0.30865,3.20509 -0.39675,1.06043 -1.07694,2.26101 -1.51152,2.66796 -0.43458,0.40695 -1.55737,1.06809 -2.49509,1.46922 -0.93771,0.40112 -1.89021,0.7181 -2.11666,0.70439 z m 0.11744,-1.38729 c 0.6791,0 1.78718,-0.27756 2.46241,-0.61681 0.67523,-0.33925 1.58804,-1.15623 2.02848,-1.81551 0.57197,-0.8562 0.8004,-1.71298 0.79946,-2.99861 -7.1e-4,-1.1639 -0.24528,-2.20002 -0.69172,-2.93221 -0.37972,-0.62277 -1.3253,-1.4562 -2.10129,-1.85208 -0.776,-0.39589 -1.93316,-0.71954 -2.57148,-0.71924 -0.63832,3e-4 -1.71304,0.27811 -2.38827,0.61736 -0.67523,0.33925 -1.58804,1.15623 -2.02848,1.81551 -0.57638,0.8628 -0.80078,1.71316 -0.80078,3.03463 0,1.32148 0.2244,2.17184 0.80078,3.03464 0.44044,0.65928 1.35325,1.47626 2.02848,1.81551 0.67523,0.33925 1.78331,0.61681 2.46241,0.61681 z m 48.25641,-0.0127 c 0.63832,0.008 1.77326,-0.29875 2.52209,-0.68078 0.74883,-0.38202 1.69501,-1.2342 2.10262,-1.89372 0.48143,-0.779 0.7411,-1.788 0.7411,-2.87976 0,-1.09175 -0.25967,-2.10076 -0.7411,-2.87974 -0.40761,-0.65952 -1.35379,-1.5117 -2.10262,-1.89372 -0.74883,-0.38203 -1.83375,-0.69459 -2.41093,-0.69459 -0.57718,0 -1.49632,0.16885 -2.04252,0.37522 -0.54621,0.20637 -1.4322,0.79412 -1.96887,1.30611 -0.53667,0.51199 -1.13874,1.53612 -1.33792,2.27584 -0.19919,0.73972 -0.25624,1.90957 -0.12677,2.59966 0.12946,0.69009 0.64427,1.74065 1.14404,2.33459 0.49976,0.59393 1.39278,1.29074 1.98448,1.54847 0.5917,0.25773 1.59808,0.47482 2.2364,0.48241 z m -23.80027,-24.80204 c 0.95485,-0.0745 2.10674,-0.43505 2.62403,-0.82127 0.50714,-0.37863 1.24371,-1.11922 1.63682,-1.64575 0.51325,-0.68744 0.71475,-1.49928 0.71475,-2.87963 0,-1.38034 -0.2015,-2.19219 -0.71475,-2.87962 -0.39311,-0.52653 -1.12337,-1.26242 -1.62279,-1.63529 -0.49943,-0.37287 -1.62501,-0.75876 -2.5013,-0.85753 -1.24311,-0.14012 -1.9148,0.001 -3.05634,0.64271 -0.8047,0.45227 -1.77274,1.32334 -2.15121,1.93571 -0.4372,0.70741 -0.68813,1.74373 -0.68813,2.84196 0,1.27961 0.23789,2.07865 0.91595,3.0765 0.50377,0.74137 1.41659,1.57454 2.02848,1.8515 0.65397,0.29601 1.81401,0.44881 2.81449,0.37071 z m 0,-25.75277 c 0.95485,-0.0745 2.10674,-0.43506 2.62403,-0.82127 0.50714,-0.37864 1.24938,-1.12724 1.64942,-1.66357 0.53327,-0.71494 0.72238,-1.48551 0.70871,-2.88772 -0.0131,-1.34328 -0.2296,-2.19513 -0.72735,-2.86182 -0.38979,-0.52207 -1.11733,-1.25431 -1.61675,-1.62718 -0.49943,-0.37287 -1.62501,-0.75877 -2.5013,-0.85754 -1.24743,-0.1406 -1.91496,0.001 -3.07533,0.65338 -0.89617,0.50369 -1.74658,1.35149 -2.1512,2.1446 -0.36803,0.7214 -0.66915,1.99548 -0.66915,2.8313 0,1.05472 0.28023,1.93206 0.91595,2.8676 0.50377,0.74137 1.41659,1.57455 2.02848,1.85151 0.65397,0.29601 1.81401,0.4488 2.81449,0.37071 z m 0,-26.81111 c 0.95485,-0.0745 2.10674,-0.43505 2.62403,-0.82127 0.50714,-0.37863 1.24938,-1.12724 1.64942,-1.66357 0.53327,-0.71494 0.72238,-1.48551 0.70871,-2.88772 -0.0131,-1.34328 -0.2296,-2.195126 -0.72735,-2.861814 -0.38979,-0.522081 -1.11733,-1.254316 -1.61675,-1.627189 -0.49943,-0.372873 -1.62501,-0.758763 -2.5013,-0.857534 -1.24743,-0.140602 -1.91496,0.0012 -3.07533,0.653384 -0.89617,0.503679 -1.74658,1.351479 -2.1512,2.144598 -0.36803,0.721388 -0.66915,1.995465 -0.66915,2.831285 0,1.05473 0.28023,1.93206 0.91595,2.8676 0.50377,0.74137 1.41659,1.57455 2.02848,1.85151 0.65397,0.29601 1.81401,0.4488 2.81449,0.37071 z M 61.555197,182.3013 c -0.679097,-3.6e-4 -1.710972,-0.29495 -2.293056,-0.6545 -0.582083,-0.35955 -1.325096,-0.95456 -1.651141,-1.32224 -0.32604,-0.36769 -0.770794,-1.13666 -0.988335,-1.70884 -0.293426,-0.77177 -0.291126,-1.47551 0.0089,-2.72622 0.281909,-1.17513 0.772111,-2.00872 1.617973,-2.7514 0.667442,-0.58602 1.440544,-1.06549 1.718007,-1.06549 0.277463,0 0.668817,-0.30707 0.869671,-0.68237 0.231987,-0.43347 0.363217,-5.16224 0.359788,-12.96458 -0.0028,-6.75522 -0.122033,-12.44859 -0.264584,-12.65193 -0.14255,-0.20335 -0.984574,-0.78855 -1.871168,-1.30045 -1.123964,-0.64897 -1.807697,-1.36475 -2.258438,-2.36432 l -0.646465,-1.43357 H 45.970664 35.784957 l -0.367545,0.97014 c -0.202152,0.53357 -0.714159,1.34241 -1.137796,1.7974 -0.42364,0.455 -1.198929,1.05031 -1.722871,1.32292 -0.523943,0.27261 -1.476442,0.4954 -2.116667,0.4951 -0.640225,-3e-4 -1.716507,-0.27811 -2.391738,-0.61736 -0.675227,-0.33925 -1.58804,-1.15623 -2.028472,-1.81551 -0.507979,-0.7604 -0.80058,-1.72784 -0.800234,-2.64583 3.03e-4,-0.79593 0.278116,-2.00276 0.617361,-2.68186 0.398776,-0.79826 1.177981,-1.52309 2.204314,-2.05049 1.131824,-0.58161 1.971022,-0.76794 2.923625,-0.64916 0.734867,0.0916 1.871306,0.57482 2.525419,1.07373 0.654117,0.49892 1.48161,1.50542 1.838879,2.23666 l 0.649577,1.32954 h 10.049414 10.049411 l 0.492573,-1.05834 c 0.270912,-0.58208 0.749304,-1.35303 1.063085,-1.71323 0.313786,-0.36019 1.165828,-0.95873 1.893433,-1.33009 l 1.322916,-0.67518 V 121.99431 109.3248 l -1.4671,-0.99345 c -0.806905,-0.5464 -1.777489,-1.41272 -2.156852,-1.92516 -0.460219,-0.62166 -0.698807,-1.53213 -0.716968,-2.73601 -0.0194,-1.28664 0.175497,-2.07582 0.679341,-2.75066 0.388609,-0.5205 1.144958,-1.273675 1.680774,-1.673719 0.694786,-0.518734 1.505885,-0.727354 2.827885,-0.727354 1.476851,0 2.111198,0.196423 3.120488,0.966245 0.722916,0.551398 1.448245,1.515998 1.689397,2.246688 0.232424,0.70425 0.343072,1.98589 0.245893,2.84809 -0.109506,0.97152 -0.494069,1.91194 -1.011305,2.47307 -0.459034,0.498 -1.390233,1.14096 -2.069331,1.4288 -0.679097,0.28784 -1.351354,0.70395 -1.493904,0.92467 -0.142551,0.22073 -0.261613,5.83851 -0.264583,12.48396 -0.0049,11.06579 0.04656,12.12912 0.61196,12.63488 0.339548,0.30373 1.162699,0.89904 1.829219,1.32292 0.666525,0.42387 1.540951,1.40567 1.943174,2.18179 l 0.731312,1.41111 10.296998,0.0935 c 7.957837,0.0722 10.385209,-0.008 10.685317,-0.35278 0.213575,-0.24545 0.669491,-1.00189 1.013143,-1.68099 0.412125,-0.81441 1.183678,-1.51605 2.266509,-2.06115 1.30261,-0.65573 1.941071,-0.77584 3.09119,-0.58153 0.841922,0.14224 1.953034,0.687 2.650776,1.29962 0.706825,0.6206 1.354095,1.62229 1.572567,2.43362 0.259873,0.9651 0.259873,1.79267 0,2.75777 -0.221891,0.82404 -0.868758,1.81566 -1.60757,2.46434 -0.679947,0.59701 -1.638854,1.18651 -2.130898,1.31 -0.492043,0.1235 -1.477595,0.12994 -2.190118,0.0143 -0.712519,-0.11562 -1.696089,-0.50572 -2.185709,-0.86687 -0.48962,-0.36116 -1.218297,-1.27812 -1.619285,-2.03769 l -0.729068,-1.38104 -10.648802,-0.0934 -10.648801,-0.0934 -0.563132,1.40741 c -0.407286,1.01791 -1.042875,1.7026 -2.296619,2.47403 l -1.733483,1.06663 0.09254,12.94202 0.09254,12.94203 1.5875,0.91984 c 0.932219,0.54015 1.842107,1.42341 2.204314,2.13981 0.339246,0.67098 0.617058,1.87117 0.617361,2.6671 3.46e-4,0.918 -0.292255,1.88543 -0.800234,2.64583 -0.440432,0.65929 -1.353244,1.47627 -2.028472,1.81552 -0.67523,0.33924 -1.783316,0.61646 -2.462413,0.61604 z m 0.705555,-0.89547 c 0.48507,-0.10606 1.27882,-0.48008 1.763889,-0.83116 0.48507,-0.35107 1.176683,-1.14162 1.536915,-1.75676 0.483532,-0.82569 0.591676,-1.45586 0.413149,-2.40748 -0.14285,-0.76145 -0.721339,-1.76854 -1.413443,-2.46065 -0.974559,-0.97455 -1.429727,-1.16951 -2.706204,-1.15911 -0.844021,0.007 -1.901335,0.21601 -2.349585,0.46475 -0.448253,0.24875 -1.121893,0.91781 -1.496984,1.48681 -0.375087,0.569 -0.683024,1.55837 -0.684301,2.19859 -0.0014,0.64023 0.246327,1.64489 0.550238,2.23258 0.328648,0.63554 1.150638,1.34343 2.028473,1.74691 0.850014,0.39069 1.849917,0.59659 2.357853,0.48552 z M 31.034745,144.32996 c 0.57924,-0.12062 1.420791,-0.4602 1.870114,-0.75461 0.449326,-0.29441 1.046966,-0.98009 1.328091,-1.52372 0.281125,-0.54363 0.511137,-1.48775 0.511137,-2.09804 0,-0.61029 -0.259641,-1.54916 -0.576983,-2.08637 -0.317341,-0.53722 -1.016522,-1.2364 -1.553735,-1.55374 -0.537217,-0.31734 -1.605541,-0.57698 -2.374053,-0.57698 -0.88282,0 -1.742144,0.27125 -2.333869,0.73671 -0.515112,0.40518 -1.171522,1.19105 -1.458686,1.74637 -0.287165,0.55531 -0.522119,1.35074 -0.522119,1.76761 0,0.41688 0.265769,1.31803 0.5906,2.00255 0.397848,0.83841 1.059864,1.45917 2.028472,1.90207 0.934275,0.42721 1.806727,0.58067 2.491031,0.43815 z m 30.443589,0.21218 c 0.248764,0.008 0.976174,-0.20508 1.616463,-0.47261 0.640288,-0.26753 1.508311,-0.92394 1.928946,-1.45869 0.52136,-0.6628 0.764787,-1.46637 0.764787,-2.5246 0,-0.85379 -0.261698,-1.95174 -0.581554,-2.43991 -0.319853,-0.48816 -1.026347,-1.11757 -1.569981,-1.39869 -0.543634,-0.28113 -1.480443,-0.51114 -2.081798,-0.51114 -0.601356,0 -1.559052,0.24081 -2.128213,0.53514 -0.569165,0.29433 -1.275655,1.00082 -1.569981,1.56998 -0.294326,0.56916 -0.535139,1.65632 -0.535139,2.4159 0,0.882 0.276013,1.73195 0.76383,2.3521 0.420106,0.53408 1.253543,1.18428 1.852084,1.44488 0.598537,0.26061 1.291787,0.48004 1.540556,0.48764 z m 32.708806,-0.21842 c 0.582083,-0.11221 1.344641,-0.35413 1.694572,-0.53758 0.34993,-0.18346 0.94465,-0.83936 1.321597,-1.45757 0.37695,-0.61821 0.685955,-1.6609 0.686678,-2.3171 7.06e-4,-0.65619 -0.317584,-1.70908 -0.707354,-2.33974 -0.389774,-0.63066 -1.186519,-1.34459 -1.77055,-1.5865 -0.612891,-0.25387 -1.692987,-0.35521 -2.554516,-0.23968 -1.067598,0.14316 -1.768909,0.50933 -2.462788,1.28584 -0.759082,0.84949 -0.970139,1.43719 -0.970139,2.70138 0,0.88864 0.269784,2.07241 0.599514,2.6306 0.329735,0.55819 1.163172,1.25103 1.852084,1.53964 0.714103,0.29917 1.707536,0.43704 2.310902,0.32071 z M 62.789919,107.79956 c 0.582083,-0.14959 1.491566,-0.75 2.021067,-1.33424 0.529506,-0.58425 1.062652,-1.46036 1.184773,-1.94693 0.122121,-0.48657 0.116095,-1.30677 -0.01341,-1.82268 -0.129483,-0.51591 -0.765817,-1.46841 -1.414074,-2.11667 -0.981798,-0.981794 -1.434952,-1.176561 -2.713235,-1.166148 -0.844021,0.0069 -1.901335,0.216017 -2.349585,0.464759 -0.448253,0.248739 -1.121893,0.917799 -1.496984,1.486809 -0.375087,0.569 -0.683024,1.55836 -0.684301,2.19859 -0.0014,0.64022 0.227687,1.60884 0.508812,2.15247 0.281125,0.54364 0.888079,1.23541 1.348785,1.53728 0.460711,0.30187 1.222887,0.60958 1.693729,0.6838 0.470838,0.0742 1.332322,0.0126 1.914405,-0.13704 z"
         id="path2596" />
      <path
         style="fill:#060062;stroke-width:0.352778;fill-opacity:1"
         d="m -6.2663287,195.12974 c -0.4365624,0.0696 -1.1112499,0.0634 -1.4993055,-0.0137 -0.3880555,-0.0772 -1.0598315,-0.21581 -1.4928355,-0.30807 -0.4330044,-0.0923 -1.3551693,-0.66636 -2.0492563,-1.27578 -0.694086,-0.60942 -1.570123,-1.71205 -1.946747,-2.45029 -0.376625,-0.73826 -0.684772,-1.9887 -0.684772,-2.77877 0,-0.79008 0.246546,-2.02671 0.547881,-2.74808 0.301334,-0.72137 0.976022,-1.76383 1.499305,-2.31656 0.523284,-0.55273 1.705094,-1.37164 2.6262451,-1.81981 0.9211508,-0.44816 1.7651719,-0.66865 1.8756023,-0.48997 0.1125276,0.18208 0.4326445,0.19512 0.7282762,0.0297 0.3368191,-0.18849 1.1253145,-0.008 2.1813417,0.49963 0.9096166,0.43715 2.1724372,1.33238 2.8062681,1.9894 0.6338312,0.65701 1.30851869,1.73886 1.49930549,2.40409 0.19078716,0.66524 0.34339917,1.7662 0.33913797,2.44657 -0.004262,0.68038 -0.29684062,1.87342 -0.65017648,2.65119 -0.35333586,0.77778 -1.22588578,1.92642 -1.93899998,2.55254 -0.7131138,0.62612 -1.6905343,1.22007 -2.1720456,1.31989 -0.481511,0.0998 -1.232662,0.23845 -1.6692245,0.30807 z m -0.6915015,-1.18825 c 0.8323477,0.002 2.1260378,-0.30923 2.8748664,-0.69125 0.748829,-0.38203 1.7290224,-1.28924 2.178208,-2.01604 0.5726257,-0.92653 0.8167006,-1.85603 0.8167006,-3.1102 0,-1.25418 -0.2440749,-2.18368 -0.8167006,-3.11021 -0.4491856,-0.7268 -1.429379,-1.63401 -2.178208,-2.01604 -0.7488286,-0.38202 -2.0091554,-0.69459 -2.8007259,-0.69459 -0.7915706,0 -2.0282073,0.30666 -2.7480817,0.68145 -0.7198746,0.3748 -1.7000686,1.2677 -2.1782076,1.98424 -0.642254,0.96247 -0.86895,1.77511 -0.867833,3.11091 9.53e-4,1.15834 0.249995,2.23074 0.692956,2.98412 0.380295,0.6468 1.326444,1.55811 2.1025552,2.02513 0.9024758,0.54307 1.9566022,0.85035 2.9244706,0.85248 z M 116.1375,185.80602 c -0.237,-0.0137 -1.14529,-0.34127 -2.01842,-0.72792 -0.87312,-0.38665 -1.95977,-1.05012 -2.41476,-1.47438 -0.455,-0.42426 -1.05031,-1.20007 -1.32292,-1.72401 -0.27261,-0.52394 -0.49565,-1.84151 -0.49565,-2.92794 0,-1.08642 0.23242,-2.42477 0.5165,-2.9741 0.28407,-0.54934 0.99352,-1.40019 1.57655,-1.89077 0.58303,-0.49059 1.83092,-1.14802 2.77309,-1.46096 1.56529,-0.51991 1.82813,-0.52088 3.04769,-0.0113 0.73406,0.3067 1.41266,0.47965 1.50799,0.38432 0.0953,-0.0953 0.61864,0.2822 1.1629,0.83897 0.54426,0.55677 1.32794,1.91669 1.7415,3.02204 0.71661,1.9153 0.72546,2.08947 0.18836,3.70651 -0.30997,0.93323 -0.89951,2.12384 -1.31009,2.64581 -0.41058,0.52198 -1.59596,1.32471 -2.63417,1.78385 -1.03821,0.45915 -2.08157,0.8236 -2.31857,0.8099 z m 0.0982,-1.38729 c 0.6791,0 1.78718,-0.27756 2.46241,-0.61681 0.67523,-0.33925 1.58804,-1.15623 2.02848,-1.81551 0.57197,-0.8562 0.8004,-1.71298 0.79946,-2.99861 -7.1e-4,-1.1639 -0.24528,-2.20002 -0.69172,-2.93221 -0.37972,-0.62277 -1.3253,-1.4562 -2.10129,-1.85208 -0.776,-0.39589 -1.93316,-0.71954 -2.57148,-0.71924 -0.63832,3e-4 -1.71304,0.27811 -2.38827,0.61736 -0.67523,0.33925 -1.58804,1.15623 -2.02848,1.81551 -0.57638,0.8628 -0.80078,1.71316 -0.80078,3.03463 0,1.32148 0.2244,2.17184 0.80078,3.03464 0.44044,0.65928 1.35325,1.47626 2.02848,1.81551 0.67523,0.33925 1.78331,0.61681 2.46241,0.61681 z m 48.19928,1.38537 c -0.21884,-0.0147 -0.87585,-0.2132 -1.46002,-0.44097 -0.58417,-0.22778 -1.54393,-0.70702 -2.13279,-1.06498 -0.58887,-0.35797 -1.4206,-1.16155 -1.84829,-1.78572 -0.61248,-0.89386 -0.77763,-1.63983 -0.77763,-3.51259 0,-1.81873 0.18661,-2.70453 0.79375,-3.76782 0.43657,-0.76455 0.99219,-1.39131 1.23473,-1.39281 0.24253,-0.001 0.44097,-0.13142 0.44097,-0.28873 0,-0.1573 0.9173,-0.56079 2.03845,-0.89662 1.90595,-0.57093 2.12952,-0.57264 3.43958,-0.0264 0.77063,0.32131 1.85249,0.90488 2.40414,1.29682 0.55165,0.39194 1.30571,1.41882 1.67569,2.28195 0.36998,0.86314 0.67269,2.09864 0.67269,2.74556 0,0.64693 -0.30271,1.88243 -0.67269,2.74555 -0.36998,0.86313 -1.12404,1.89001 -1.67569,2.28195 -0.55165,0.39195 -1.61771,0.96891 -2.369,1.28215 -0.7513,0.31323 -1.54505,0.55744 -1.76389,0.54268 z m 0.0571,-1.39808 c 0.63832,0.008 1.77326,-0.29876 2.52209,-0.68078 0.74883,-0.38202 1.69501,-1.2342 2.10262,-1.89372 0.48143,-0.77899 0.7411,-1.78799 0.7411,-2.87975 0,-1.09175 -0.25967,-2.10076 -0.7411,-2.87974 -0.40761,-0.65952 -1.35379,-1.5117 -2.10262,-1.89372 -0.74883,-0.38203 -1.83375,-0.69459 -2.41093,-0.69459 -0.57718,0 -1.49632,0.16885 -2.04252,0.37522 -0.54621,0.20637 -1.4322,0.79412 -1.96887,1.30611 -0.53667,0.51199 -1.13874,1.53612 -1.33792,2.27584 -0.19919,0.73972 -0.25624,1.90957 -0.12677,2.59966 0.12946,0.69009 0.64427,1.74065 1.14404,2.33459 0.49976,0.59393 1.39278,1.29074 1.98448,1.54847 0.5917,0.25773 1.59808,0.47482 2.2364,0.48241 z M 61.555197,182.29189 c -0.679097,-0.006 -1.552222,-0.18535 -1.940278,-0.39945 -0.388055,-0.2141 -1.138449,-0.79108 -1.667538,-1.28218 -0.529093,-0.49111 -1.133306,-1.41203 -1.3427,-2.04649 -0.276497,-0.8378 -0.270094,-1.57027 0.02339,-2.67584 0.222253,-0.83725 0.747095,-1.89991 1.166308,-2.36148 0.419213,-0.46157 1.317829,-1.08372 1.996926,-1.38257 0.679098,-0.29884 1.552223,-0.55619 1.940278,-0.5719 0.388056,-0.0157 1.419931,0.37548 2.293056,0.86929 0.94858,0.53648 1.835749,1.38837 2.204314,2.11666 0.339245,0.67037 0.617058,1.87005 0.617361,2.66598 3.46e-4,0.918 -0.292255,1.88543 -0.800234,2.64583 -0.440433,0.65929 -1.353245,1.47627 -2.028472,1.81552 -0.675231,0.33924 -1.783317,0.61223 -2.462414,0.60663 z m 0.705555,-0.88606 c 0.48507,-0.10606 1.27882,-0.48008 1.763889,-0.83116 0.48507,-0.35107 1.176683,-1.14162 1.536915,-1.75676 0.483532,-0.82569 0.591676,-1.45586 0.413149,-2.40748 -0.14285,-0.76145 -0.721339,-1.76854 -1.413443,-2.46065 -0.974559,-0.97455 -1.429727,-1.16951 -2.706204,-1.15911 -0.844021,0.007 -1.901335,0.21601 -2.349585,0.46475 -0.448253,0.24875 -1.121893,0.91781 -1.496984,1.48681 -0.375087,0.569 -0.683024,1.55837 -0.684301,2.19859 -0.0014,0.64023 0.246327,1.64489 0.550238,2.23258 0.328648,0.63554 1.150638,1.34343 2.028473,1.74691 0.850014,0.39069 1.849917,0.59659 2.357853,0.48552 z M -6.794492,170.44336 c -0.6801541,0.032 -1.9943804,-0.3312 -3.013173,-0.8327 -0.993786,-0.48919 -2.290252,-1.49949 -2.881037,-2.2451 -0.972978,-1.22797 -1.074154,-1.59592 -1.074154,-3.90632 0,-2.19221 0.136389,-2.75675 0.970532,-4.01723 0.552685,-0.83516 1.608366,-1.79197 2.452027,-2.22238 0.8148225,-0.41569 2.2037078,-0.78513 3.0864121,-0.82097 0.8827047,-0.0359 2.0811673,0.12795 2.6632506,0.364 0.5820833,0.23606 1.4993249,0.77612 2.0383147,1.20014 0.5389897,0.42402 1.3204595,1.43063 1.73659968,2.23691 0.4443684,0.86097 0.75661835,2.1211 0.75661835,3.05345 0,0.91823 -0.30865938,2.18241 -0.73212922,2.99862 -0.40267111,0.77611 -1.10476591,1.74972 -1.56021081,2.16359 -0.4554449,0.41387 -1.3700343,1.02671 -2.0324212,1.36187 -0.6623868,0.33517 -1.7471699,0.63492 -2.4106292,0.66612 z m -0.3743646,-1.19297 c 0.5370445,0 1.6308376,-0.26184 2.4306512,-0.58186 0.8901009,-0.35615 1.8508002,-1.12934 2.4765835,-1.99321 0.7968385,-1.1 1.0223764,-1.79265 1.0223764,-3.13983 0,-0.95066 -0.232423,-2.17793 -0.5164959,-2.72727 -0.2840729,-0.54933 -0.9944149,-1.40093 -1.578538,-1.89244 -0.5841231,-0.49151 -1.6420556,-1.08507 -2.3509611,-1.31903 -0.9826156,-0.32429 -1.6097334,-0.32926 -2.638897,-0.0209 -0.7424878,0.22246 -1.8549675,0.82939 -2.4721775,1.34873 -0.617211,0.51935 -1.33874,1.46252 -1.603399,2.09594 -0.264659,0.63342 -0.478586,1.75208 -0.475395,2.48592 0.0032,0.73383 0.361034,1.96924 0.795203,2.74536 0.520134,0.92978 1.325815,1.68186 2.3620018,2.20486 0.8649317,0.43656 2.0120034,0.79375 2.5490476,0.79375 z M 140.93019,160.92202 c -0.48507,0.0988 -1.51311,-0.0547 -2.28453,-0.3412 -0.77142,-0.28649 -1.55723,-0.67553 -1.74625,-0.86455 -0.18901,-0.18901 -0.62941,-0.34366 -0.97866,-0.34366 -0.34925,0 -0.635,-0.23813 -0.635,-0.52917 0,-0.29104 -0.1201,-0.52916 -0.26688,-0.52916 -0.14679,0 -0.46429,-0.6325 -0.70556,-1.40556 -0.24127,-0.77305 -0.43867,-2.04938 -0.43867,-2.83628 0,-0.78689 0.3139,-2.04602 0.69757,-2.79806 0.38366,-0.75204 1.15668,-1.69427 1.71781,-2.09383 0.56114,-0.39956 1.47754,-0.90731 2.03646,-1.12832 0.55892,-0.22102 1.41309,-0.42769 1.89816,-0.45928 0.48507,-0.0316 1.61533,0.29623 2.51168,0.72849 0.89636,0.43226 2.04312,1.2772 2.54837,1.87765 0.50524,0.60044 1.09445,1.74471 1.30936,2.54282 0.28813,1.07005 0.28532,1.83011 -0.0107,2.89438 -0.2208,0.79379 -0.43214,1.67393 -0.46966,1.95585 -0.0375,0.28192 -0.31856,0.77041 -0.62456,1.08553 -0.306,0.31511 -1.2585,0.90858 -2.11667,1.3188 -0.85817,0.41022 -1.95718,0.82672 -2.44225,0.92555 z m -0.2383,-1.31804 c 0.95485,-0.0745 2.10674,-0.43505 2.62403,-0.82127 0.50714,-0.37863 1.24371,-1.11922 1.63682,-1.64575 0.51325,-0.68744 0.71475,-1.49928 0.71475,-2.87963 0,-1.38034 -0.2015,-2.19219 -0.71475,-2.87962 -0.39311,-0.52654 -1.12337,-1.26242 -1.62279,-1.63529 -0.49943,-0.37287 -1.62501,-0.75876 -2.5013,-0.85753 -1.24311,-0.14012 -1.9148,10e-4 -3.05634,0.64271 -0.8047,0.45227 -1.77274,1.32334 -2.15121,1.93571 -0.4372,0.70741 -0.68813,1.74373 -0.68813,2.84196 0,1.27961 0.23789,2.07864 0.91595,3.0765 0.50377,0.74137 1.41659,1.57454 2.02848,1.8515 0.65397,0.29601 1.81401,0.44881 2.81449,0.37071 z M -6.7678023,145.8326 c -1.0165284,0.0643 -2.03297,-0.18671 -3.2868827,-0.81156 -1.169907,-0.58299 -2.151752,-1.41305 -2.761721,-2.33478 -0.807609,-1.22037 -0.94645,-1.80435 -0.94645,-3.98084 0,-2.32078 0.09799,-2.67283 1.087349,-3.90631 0.598042,-0.74562 1.810076,-1.75254 2.6934072,-2.23761 1.0518598,-0.57761 2.0975534,-0.86425 3.0304058,-0.83067 0.8098842,0.0291 2.2104871,0.47914 3.2466455,1.04309 1.3735007,0.74755 2.0211577,1.38654 2.6297508,2.59456 0.44409925,0.88151 0.9135117,2.09369 1.04313883,2.69372 0.1579513,0.73116 -0.003422,1.73009 -0.489307,3.0287 -0.39874612,1.06575 -1.08055723,2.2628 -1.51513603,2.66012 -0.4345788,0.39731 -1.3457685,1.00728 -2.0248657,1.35548 -0.6790972,0.3482 -1.8969478,0.67495 -2.7063347,0.7261 z m -0.4686652,-0.94133 c 0.097014,0.007 0.7667713,-0.15045 1.48835,-0.35085 0.7215787,-0.2004 1.7988431,-0.77405 2.3939206,-1.27478 0.5950779,-0.50072 1.3143826,-1.35986 1.5984555,-1.9092 0.2840729,-0.54933 0.5164959,-1.77695 0.5164959,-2.72803 0,-1.21575 -0.2387956,-2.08359 -0.804182,-2.92256 -0.4423,-0.65633 -1.4344875,-1.55032 -2.204861,-1.98665 -0.7703735,-0.43632 -1.9623542,-0.79593 -2.6488456,-0.79912 -0.6864918,-0.003 -1.9558384,0.35139 -2.8207701,0.78795 -1.0361868,0.523 -1.8418678,1.27508 -2.3620018,2.20486 -0.434169,0.77611 -0.792011,2.01152 -0.795203,2.74536 -0.0032,0.73383 0.211863,1.84508 0.477898,2.46944 0.266036,0.62436 0.885985,1.50592 1.377664,1.95902 0.49168,0.4531 1.5043267,1.04145 2.2503268,1.30743 0.7460001,0.26599 1.4357388,0.4897 1.5327527,0.49713 z m 68.8869005,0.53486 c -0.473485,0.0207 -1.606116,-0.38794 -2.516964,-0.90814 -1.267287,-0.72378 -1.85179,-1.36368 -2.489715,-2.72567 -0.818734,-1.74803 -0.822473,-1.80386 -0.209134,-3.12408 0.343472,-0.73933 0.881677,-1.63831 1.196009,-1.99772 0.314332,-0.35941 1.048138,-0.90178 1.63068,-1.20526 0.582542,-0.30349 1.535416,-0.58454 2.117499,-0.62457 0.582083,-0.04 1.534583,0.1643 2.116666,0.45406 0.582084,0.28976 1.349252,0.78228 1.704817,1.09449 0.355568,0.31221 0.895875,1.12651 1.200686,1.80954 0.304807,0.68304 0.52452,1.48001 0.488248,1.77105 -0.03627,0.29104 -0.312392,1.20515 -0.613597,2.03135 -0.418289,1.14735 -0.927541,1.7248 -2.15598,2.44472 -0.884583,0.5184 -1.995731,0.9595 -2.469215,0.98023 z m -0.172099,-0.88399 c 0.248764,0.008 0.976174,-0.20508 1.616463,-0.47261 0.640288,-0.26753 1.508311,-0.92394 1.928946,-1.45869 0.52136,-0.6628 0.764787,-1.46637 0.764787,-2.5246 0,-0.85379 -0.261698,-1.95174 -0.581554,-2.43991 -0.319853,-0.48816 -1.026347,-1.11757 -1.569981,-1.39869 -0.543634,-0.28113 -1.480443,-0.51114 -2.081798,-0.51114 -0.601356,0 -1.559052,0.24081 -2.128213,0.53514 -0.569165,0.29433 -1.275655,1.00082 -1.569981,1.56998 -0.294326,0.56916 -0.535139,1.65632 -0.535139,2.4159 0,0.882 0.276013,1.73195 0.76383,2.3521 0.420106,0.53408 1.253543,1.18428 1.852084,1.44488 0.598537,0.26061 1.291787,0.48004 1.540556,0.48764 z m -30.931555,0.71881 c -0.698913,-3e-4 -1.823208,-0.27811 -2.498439,-0.61736 -0.675227,-0.33925 -1.58804,-1.15623 -2.028472,-1.81551 -0.507979,-0.7604 -0.80058,-1.72784 -0.800234,-2.64583 3.03e-4,-0.79593 0.278116,-2.00276 0.617361,-2.68186 0.398776,-0.79826 1.177981,-1.52309 2.204314,-2.05049 1.131824,-0.58161 1.971022,-0.76794 2.923625,-0.64916 0.734867,0.0916 1.865577,0.57044 2.512691,1.06402 0.647114,0.49358 1.492215,1.53539 1.878002,2.31513 0.385787,0.77974 0.617932,1.50121 0.515877,1.60326 -0.102051,0.10206 -0.231249,0.61419 -0.287104,1.13809 -0.05586,0.52389 -0.401437,1.35758 -0.767955,1.85264 -0.366519,0.49507 -1.191218,1.25731 -1.832659,1.69387 -0.677168,0.46088 -1.699172,0.79352 -2.437007,0.7932 z m 0.487966,-0.93099 c 0.57924,-0.12062 1.420791,-0.4602 1.870114,-0.75461 0.449326,-0.29441 1.046966,-0.98009 1.328091,-1.52372 0.281125,-0.54363 0.511137,-1.48775 0.511137,-2.09804 0,-0.61029 -0.259641,-1.54916 -0.576983,-2.08637 -0.317341,-0.53722 -1.016522,-1.2364 -1.553735,-1.55374 -0.537217,-0.31734 -1.605541,-0.57698 -2.374053,-0.57698 -0.88282,0 -1.742144,0.27125 -2.333869,0.73671 -0.515112,0.40518 -1.171522,1.19105 -1.458686,1.74637 -0.287165,0.55531 -0.522119,1.35074 -0.522119,1.76761 0,0.41688 0.265769,1.31803 0.5906,2.00255 0.397848,0.83841 1.059864,1.45917 2.028472,1.90207 0.934275,0.42721 1.806727,0.58067 2.491031,0.43815 z m 62.558226,0.91773 c -0.643347,-0.008 -1.64597,-0.22403 -2.228053,-0.48097 -0.582083,-0.25693 -1.325097,-0.76695 -1.651141,-1.13336 -0.326041,-0.36641 -0.787418,-1.14217 -1.025282,-1.72389 -0.23786,-0.58173 -0.397679,-1.33551 -0.355155,-1.67505 0.04252,-0.33955 -0.09767,-0.61736 -0.311545,-0.61736 -0.280367,0 -0.281901,-0.12304 -0.0055,-0.44098 0.210856,-0.24253 0.664542,-0.99659 1.008193,-1.67569 0.412126,-0.81441 1.183679,-1.51605 2.266509,-2.06115 1.302611,-0.65573 1.941072,-0.77584 3.091191,-0.58153 0.841922,0.14224 1.953034,0.687 2.650776,1.29962 0.706825,0.6206 1.354095,1.62229 1.572566,2.43362 0.25551,0.9489 0.258802,1.79666 0.01055,2.7186 -0.198409,0.73685 -0.799842,1.74932 -1.336512,2.24995 -0.53667,0.50063 -1.322518,1.08838 -1.746324,1.30612 -0.423806,0.21773 -1.296931,0.38967 -1.940278,0.38207 z m 0.594169,-0.92397 c 0.582083,-0.11221 1.344641,-0.35413 1.694572,-0.53758 0.34993,-0.18346 0.94465,-0.83936 1.321597,-1.45757 0.37695,-0.61821 0.685955,-1.6609 0.686678,-2.3171 7.06e-4,-0.65619 -0.317584,-1.70908 -0.707354,-2.33974 -0.389774,-0.63066 -1.186519,-1.34459 -1.77055,-1.5865 -0.612891,-0.25387 -1.692987,-0.35521 -2.554516,-0.23968 -1.067598,0.14316 -1.768909,0.50933 -2.462788,1.28584 -0.759082,0.84949 -0.970139,1.43719 -0.970139,2.70138 0,0.88864 0.269784,2.07241 0.599514,2.6306 0.329735,0.55819 1.163172,1.25103 1.852084,1.53964 0.714103,0.29917 1.707536,0.43704 2.310902,0.32071 z m 46.19094,-9.112 c -0.47245,0.0207 -0.859,0.25969 -0.859,0.12281 0,-0.13687 -0.5457,-0.42897 -1.21268,-0.64909 -0.66697,-0.22012 -1.6239,-0.72369 -2.12651,-1.11904 -0.5026,-0.39535 -1.22689,-1.33249 -1.60954,-2.08253 -0.39264,-0.76963 -0.69571,-2.06751 -0.69571,-2.97931 0,-0.91326 0.30325,-2.21004 0.69757,-2.98296 0.38366,-0.75204 1.13772,-1.6705 1.67569,-2.04102 0.53797,-0.37052 1.52948,-0.89406 2.20336,-1.16344 0.67388,-0.26937 1.547,-0.49562 1.94028,-0.50276 0.39327,-0.007 1.44843,0.33648 2.34478,0.76361 0.89636,0.42713 2.04312,1.26787 2.54837,1.86832 0.50524,0.60044 1.09124,1.73278 1.30222,2.51631 0.21098,0.78352 0.27541,1.92724 0.14318,2.5416 -0.13224,0.61435 -0.46088,1.54849 -0.73033,2.07585 -0.26944,0.52737 -0.92501,1.36256 -1.45681,1.85598 -0.53181,0.49342 -1.28442,0.99418 -1.67248,1.1128 -0.38805,0.11862 -0.91432,0.383 -1.16947,0.58751 -0.25516,0.20451 -0.85047,0.0547 -1.32292,0.0754 z m 0.31381,-1.36051 c 0.95485,-0.0745 2.10674,-0.43506 2.62403,-0.82127 0.50714,-0.37864 1.24938,-1.12724 1.64942,-1.66357 0.53327,-0.71494 0.72238,-1.48551 0.70871,-2.88772 -0.0131,-1.34328 -0.2296,-2.19513 -0.72735,-2.86182 -0.38979,-0.52208 -1.11733,-1.25431 -1.61675,-1.62718 -0.49943,-0.37288 -1.62501,-0.75877 -2.5013,-0.85754 -1.24743,-0.1406 -1.91496,0.001 -3.07533,0.65338 -0.89617,0.50369 -1.74658,1.35149 -2.1512,2.1446 -0.36803,0.7214 -0.66915,1.99548 -0.66915,2.8313 0,1.05472 0.28023,1.93206 0.91595,2.8676 0.50377,0.74137 1.41659,1.57455 2.02848,1.85151 0.65397,0.29601 1.81401,0.4488 2.81449,0.37071 z M -7.9875134,121.02232 c -0.1220336,0.18157 -0.2807836,0.1931 -0.3527778,0.0256 -0.071994,-0.16748 -0.9039866,-0.69384 -1.8488718,-1.16971 -1.020969,-0.51417 -2.075923,-1.40609 -2.600245,-2.1984 -0.48525,-0.73326 -0.962002,-2.04057 -1.05945,-2.90512 -0.09745,-0.86456 -0.0693,-2.14693 0.06254,-2.84973 0.133216,-0.7101 0.78311,-1.87928 1.462796,-2.63161 0.672692,-0.74459 1.78594,-1.62089 2.4738835,-1.94734 0.6879435,-0.32645 1.8686377,-0.63756 2.6237645,-0.69134 0.9291684,-0.0662 1.976072,0.20247 3.238821,0.83116 1.5221044,0.7578 2.0548864,1.27998 2.8918481,2.83426 0.61967952,1.15078 1.03879538,2.47795 1.05833327,3.35131 0.02037997,0.91105 -0.30106619,2.09395 -0.86891421,3.19752 -0.63563146,1.2353 -1.39888026,2.05919 -2.58963826,2.79538 -1.0797144,0.66753 -2.1537527,1.04096 -2.9792929,1.03585 -0.7100044,-0.004 -1.3907628,0.14058 -1.5127964,0.32214 z m 2.1199033,-1.54385 c 0.6723034,-0.15163 1.6315312,-0.57863 2.1316174,-0.94891 0.5000861,-0.37026 1.2664347,-1.19803 1.7029972,-1.83947 0.572069,-0.84054 0.79375,-1.67901 0.79375,-3.0022 0,-1.32319 -0.221681,-2.16166 -0.79375,-3.0022 -0.4365625,-0.64144 -1.2419537,-1.49835 -1.789758,-1.90425 -0.7580118,-0.56165 -1.5166791,-0.73799 -3.1749999,-0.73799 -1.7180665,0 -2.4232079,0.17418 -3.3335066,0.82345 -0.634983,0.45291 -1.46842,1.43877 -1.852083,2.19081 -0.383663,0.75204 -0.697569,1.9344 -0.697569,2.62746 0,0.69306 0.217666,1.77094 0.483701,2.3953 0.266036,0.62436 0.884078,1.50413 1.373427,1.95504 0.489349,0.45091 1.5746435,1.02207 2.4117647,1.26924 0.9513355,0.2809 1.980379,0.34604 2.7444092,0.17372 z M 61.307483,109.0855 c -0.427284,0.0209 -1.364576,-0.36368 -2.082874,-0.85475 -0.718298,-0.49107 -1.617094,-1.31212 -1.997332,-1.82456 -0.462146,-0.62283 -0.700359,-1.52986 -0.718556,-2.73601 -0.0194,-1.28664 0.175497,-2.07582 0.679341,-2.75066 0.388609,-0.5205 1.144958,-1.273675 1.680774,-1.673719 0.694786,-0.518734 1.505885,-0.727354 2.827885,-0.727354 1.476851,0 2.111198,0.196423 3.120488,0.966245 0.722916,0.551398 1.448245,1.515998 1.689397,2.246688 0.232424,0.70425 0.342829,1.98807 0.245346,2.85294 -0.121306,1.0762 -0.486671,1.89545 -1.15769,2.59584 -0.539242,0.56285 -1.549572,1.21324 -2.245173,1.4453 -0.6956,0.23206 -1.614321,0.43908 -2.041606,0.46004 z m 1.482436,-1.28594 c 0.582083,-0.14959 1.491566,-0.75 2.021067,-1.33424 0.529506,-0.58425 1.062652,-1.46036 1.184773,-1.94693 0.122121,-0.48657 0.116095,-1.30677 -0.01341,-1.82268 -0.129483,-0.51591 -0.765817,-1.46841 -1.414074,-2.11667 -0.981798,-0.981794 -1.434952,-1.176561 -2.713235,-1.166148 -0.844021,0.0069 -1.901335,0.216017 -2.349585,0.464759 -0.448253,0.248739 -1.121893,0.917799 -1.496984,1.486809 -0.375087,0.569 -0.683024,1.55836 -0.684301,2.19859 -0.0014,0.64022 0.227687,1.60884 0.508812,2.15247 0.281125,0.54364 0.888079,1.23541 1.348785,1.53728 0.460711,0.30187 1.222887,0.60958 1.693729,0.6838 0.470838,0.0742 1.332322,0.0126 1.914405,-0.13704 z m 77.588161,0.93514 c -0.47245,0.0207 -0.859,-0.0744 -0.859,-0.21127 0,-0.13688 -0.5457,-0.42898 -1.21268,-0.6491 -0.66697,-0.22012 -1.6239,-0.72369 -2.12651,-1.11904 -0.5026,-0.39534 -1.22689,-1.33248 -1.60954,-2.08252 -0.39264,-0.76964 -0.69571,-2.06752 -0.69571,-2.97932 0,-0.91326 0.30325,-2.210037 0.69757,-2.982959 0.38366,-0.752041 1.13772,-1.669817 1.67569,-2.039503 0.53797,-0.369685 1.71383,-0.944797 2.61302,-1.278027 1.60628,-0.595266 1.66824,-0.591124 3.54001,0.236662 1.04782,0.463393 2.332,1.349854 2.85374,1.969913 0.52175,0.62006 1.12126,1.768447 1.33224,2.551974 0.21098,0.78352 0.27541,1.92724 0.14318,2.5416 -0.13224,0.61435 -0.46088,1.54849 -0.73033,2.07585 -0.26944,0.52737 -0.92501,1.36256 -1.45681,1.85598 -0.53181,0.49342 -1.28442,0.99418 -1.67248,1.1128 -0.38805,0.11862 -0.91432,0.383 -1.16947,0.58751 -0.25516,0.20451 -0.85047,0.38877 -1.32292,0.40945 z m 0.31381,-1.6946 c 0.95485,-0.0745 2.10674,-0.43506 2.62403,-0.82127 0.50714,-0.37863 1.24938,-1.12724 1.64942,-1.66357 0.53327,-0.71494 0.72238,-1.48551 0.70871,-2.88772 -0.0131,-1.34328 -0.2296,-2.195127 -0.72735,-2.861814 -0.38979,-0.522081 -1.11733,-1.254317 -1.61675,-1.627189 -0.49943,-0.372873 -1.62501,-0.758763 -2.5013,-0.857534 -1.24743,-0.140603 -1.91496,0.0012 -3.07533,0.653383 -0.89617,0.50368 -1.74658,1.351479 -2.1512,2.144599 -0.36803,0.721398 -0.66915,1.995475 -0.66915,2.831295 0,1.05473 0.28023,1.93206 0.91595,2.8676 0.50377,0.74137 1.41659,1.57455 2.02848,1.85151 0.65397,0.29601 1.81401,0.4488 2.81449,0.37071 z M -7.7701268,97.640232 c -0.2885708,0.239492 -0.524674,0.281362 -0.524674,0.09305 0,-0.188318 -0.6233767,-0.6235 -1.385281,-0.967071 -0.7619052,-0.343571 -1.7853582,-1.042368 -2.2743412,-1.552883 -0.488983,-0.510515 -1.135607,-1.518422 -1.436941,-2.239794 -0.301335,-0.721373 -0.547881,-1.959569 -0.547881,-2.751547 0,-0.791978 0.256248,-1.948015 0.56944,-2.568969 0.313192,-0.620955 0.98788,-1.579744 1.499306,-2.130643 0.511426,-0.550898 1.406115,-1.251224 1.9881982,-1.55628 0.5892874,-0.308831 1.918251,-0.554647 2.9986111,-0.554647 1.08036,0 2.4093236,0.245816 2.998611,0.554647 0.5820833,0.305056 1.4864742,1.005382 2.009758,1.55628 0.5232837,0.550899 1.19797116,1.591848 1.49930546,2.31322 0.3013343,0.721372 0.54699533,1.832622 0.54591336,2.469444 -0.001094,0.636822 -0.16476838,1.744024 -0.36374774,2.46045 -0.22695146,0.81714 -0.93926618,1.810914 -1.91132668,2.666556 -0.8522507,0.750181 -2.1316152,1.542607 -2.8430318,1.760948 -0.7114169,0.218339 -1.5193309,0.310316 -1.795365,0.204392 -0.2760338,-0.105924 -0.7379829,0.0034 -1.0265537,0.242852 z m 0.8095735,-1.428648 c 0.6368221,0.0076 1.671177,-0.20067 2.2985669,-0.46281 0.6273895,-0.262141 1.6434339,-1.049192 2.2578765,-1.749003 0.7368356,-0.839209 1.198283,-1.813296 1.3554304,-2.861229 0.18813776,-1.254593 0.075462,-1.925145 -0.5355968,-3.187424 -0.4256221,-0.879218 -1.2439169,-1.93329 -1.8184328,-2.342381 -0.5745163,-0.409091 -1.6620857,-0.826628 -2.4168216,-0.92786 -0.7547359,-0.101231 -1.9402682,-0.07749 -2.6345165,0.05275 -0.7469282,0.140124 -1.7584118,0.732945 -2.4775138,1.452048 -0.668385,0.668385 -1.387172,1.853729 -1.597303,2.634098 -0.210132,0.78037 -0.27478,1.990691 -0.143663,2.689604 0.131117,0.698913 0.73023,1.830921 1.331362,2.515573 0.601133,0.684652 1.5721698,1.453623 2.1578606,1.708825 0.5856908,0.255202 1.5859286,0.470217 2.2227511,0.477812 z"
         id="path2594"
         sodipodi:nodetypes="cccsssssssscsssssscccssssssssssscsssssssssssssssssssscssssssssssssssscssssssssssscsssssssssssscsssssssssssssssssssscsscssssssssscssssssssssssssssssssssssssssssssssssssssssssssssssscssssscssssscssssssccsssssscsssssscsssssssssssssscssssssssssscsssssscsssssssssssssssssssssssssssssssssssssssssssssssssssssssssscsssssssssssssssscssssssssssssscssssscsssssssssssssssscssssssssssscsssssssscsssssssssssssssssssssssssssssssssssssssssssssssssssssssssssssssssssssss" />
    </g>
  </g>
</svg>
