<?xml version="1.0" encoding="utf-8"?>
<svg version="1.1" xmlns="http://www.w3.org/2000/svg" xmlns:xlink="http://www.w3.org/1999/xlink" width="100%" height="100%" viewBox="-58 -631 768 648">
 <title>Phase diagram of water</title>
 <desc>Phase diagram of water as a log-lin chart with pressure from 1 Pa to 1 TPa and temperature from 0 K to 650 K, compiled from data in http://www.lsbu.ac.uk/water/phase.html and http://ergodic.ugr.es/termo/lecciones/water1.html by CMG Lee. Note that the phases of Ice X and XI (hexagonal) differ from the diagram in https://chem331001fall09.pbworks.com/w/page/15647320/LECTURE-10 .</desc>
 <defs>
  <radialGradient id="solid" cx="50%" cy="50%" r="80%" fx="0%" fy="0%">
   <stop stop-color="rgb(0, 153, 255)" stop-opacity="0" offset="0%" />
   <stop stop-color="rgb(0, 153, 255)" stop-opacity="0.5" offset="100%" />
  </radialGradient>
  <radialGradient id="liquid" cx="50%" cy="50%" r="80%" fx="100%" fy="20%">
   <stop stop-color="rgb(0, 204, 0)" stop-opacity="0" offset="0%" />
   <stop stop-color="rgb(0, 204, 0)" stop-opacity="0.5" offset="100%" />
  </radialGradient>
  <radialGradient id="gas" cx="50%" cy="50%" r="80%" fx="100%" fy="0%">
   <stop stop-color="rgb(255, 153, 0)" stop-opacity="0" offset="0%" />
   <stop stop-color="rgb(255, 153, 0)" stop-opacity="0.5" offset="100%" />
  </radialGradient>

  <g id="grid_x" stroke-opacity="0.2">
   <line stroke-opacity="0.4" x1="0" y1="0" x2="0" y2="-605" />
   <line x1="10" y1="0" x2="10" y2="-600" />
   <line x1="20" y1="0" x2="20" y2="-600" />
   <line x1="30" y1="0" x2="30" y2="-600" />
   <line x1="40" y1="0" x2="40" y2="-600" />
  </g>
  <g id="grid_y" stroke-opacity="0.15">
   <line stroke-opacity="0.4" x1="-5" y1="0" x2="655" y2="0" />
   <line x1="0" y1="-15.051" x2="650" y2="-15.051" />
   <line x1="0" y1="-23.856" x2="650" y2="-23.856" />
   <line x1="0" y1="-30.103" x2="650" y2="-30.103" />
   <line stroke-opacity="0.3" x1="0" y1="-34.949" x2="650" y2="-34.949" />
   <line x1="0" y1="-38.908" x2="650" y2="-38.908" />
   <line x1="0" y1="-42.255" x2="650" y2="-42.255" />
   <line x1="0" y1="-45.154" x2="650" y2="-45.154" />
   <line x1="0" y1="-47.712" x2="650" y2="-47.712" />
  </g>
  <g id="grid" letter-spacing="-1px">
   <g id="line_grid" stroke="#666666">
    <use xlink:href="#grid_x" />
    <use transform="translate(50)" xlink:href="#grid_x" />
    <use transform="translate(100)" xlink:href="#grid_x" />
    <use transform="translate(150)" xlink:href="#grid_x" />
    <use transform="translate(200)" xlink:href="#grid_x" />
    <use transform="translate(250)" xlink:href="#grid_x" />
    <use transform="translate(300)" xlink:href="#grid_x" />
    <use transform="translate(350)" xlink:href="#grid_x" />
    <use transform="translate(400)" xlink:href="#grid_x" />
    <use transform="translate(450)" xlink:href="#grid_x" />
    <use transform="translate(500)" xlink:href="#grid_x" />
    <use transform="translate(550)" xlink:href="#grid_x" />
    <use transform="translate(600)" xlink:href="#grid_x" />
    <use xlink:href="#grid_y" />
    <use transform="translate(0 -50)" xlink:href="#grid_y" />
    <use transform="translate(0 -100)" xlink:href="#grid_y" />
    <use transform="translate(0 -150)" xlink:href="#grid_y" />
    <use transform="translate(0 -200)" xlink:href="#grid_y" />
    <use transform="translate(0 -250)" xlink:href="#grid_y" />
    <use transform="translate(0 -300)" xlink:href="#grid_y" />
    <use transform="translate(0 -350)" xlink:href="#grid_y" />
    <use transform="translate(0 -400)" xlink:href="#grid_y" />
    <use transform="translate(0 -450)" xlink:href="#grid_y" />
    <use transform="translate(0 -500)" xlink:href="#grid_y" />
    <use transform="translate(0 -550)" xlink:href="#grid_y" />
    <line stroke-opacity="0.4" x1="-5" y1="-600" x2="655" y2="-600" />
    <line stroke-opacity="0.4" x1="650" y1="-605" x2="650" y2="0" />
    <rect fill="none" x="0" y="-600" width="650" height="600" />
   </g>
   <g id="text_grid_unit" letter-spacing="0px" font-size="12px" font-weight="bold" fill="#000000" text-anchor="middle">
    <g transform="rotate(-90) translate(300,-48)">
     <switch>
      <text systemLanguage="de">Druck</text>
      <text systemLanguage="fr">Pression</text>
      <text systemLanguage="it">Pressione</text>
      <text systemLanguage="pl">Ciśnienie</text>
      <text systemLanguage="pt">Pressão</text>
      <text>Pressure</text>
     </switch>
    </g>
    <g transform="translate(323.15,-620)">
     <switch>
      <text systemLanguage="de">Temperatur</text>
      <text systemLanguage="fr">Température</text>
      <text systemLanguage="it">Temperatura</text>
      <text systemLanguage="pl">Temperatura</text>
      <text systemLanguage="pt">Temperatura</text>
      <text>Temperature</text>
     </switch>
    </g>
   </g>
   <g id="text_grid_pa" font-size="12px" fill="#000000" text-anchor="end">
    <text x="-5" y="0" dy="0.5em">1 Pa</text>
    <text x="-5" y="-50" dy="0.5em">10 Pa</text>
    <text x="-5" y="-100" dy="0.5em">100 Pa</text>
    <text x="-5" y="-150" dy="0.5em">1 kPa</text>
    <text x="-5" y="-200" dy="0.5em">10 kPa</text>
    <text x="-5" y="-250" dy="0.5em">100 kPa</text>
    <text x="-5" y="-300" dy="0.5em">1 MPa</text>
    <text x="-5" y="-350" dy="0.5em">10 MPa</text>
    <text x="-5" y="-400" dy="0.5em">100 MPa</text>
    <text x="-5" y="-450" dy="0.5em">1 GPa</text>
    <text x="-5" y="-500" dy="0.5em">10 GPa</text>
    <text x="-5" y="-550" dy="0.5em">100 GPa</text>
    <text x="-5" y="-600" dy="0.5em">1 TPa</text>
   </g>
   <g id="text_grid_bar" font-size="12px" fill="#ff0000" text-anchor="start">
    <text x="655" y="0" dy="0.5em">10 µbar</text>
    <text x="655" y="-50" dy="0.5em">100 µbar</text>
    <text x="655" y="-100" dy="0.5em">1 mbar</text>
    <text x="655" y="-150" dy="0.5em">10 mbar</text>
    <text x="655" y="-200" dy="0.5em">100 mbar</text>
    <text x="655" y="-250" dy="0.5em">1 bar</text>
    <text x="655" y="-300" dy="0.5em">10 bar</text>
    <text x="655" y="-350" dy="0.5em">100 bar</text>
    <text x="655" y="-400" dy="0.5em">1 kbar</text>
    <text x="655" y="-450" dy="0.5em">10 kbar</text>
    <text x="655" y="-500" dy="0.5em">100 kbar</text>
    <text x="655" y="-550" dy="0.5em">1 Mbar</text>
    <text x="655" y="-600" dy="0.5em">10 Mbar</text>
   </g>
   <g id="text_grid_k" font-size="12px" fill="#000000" text-anchor="middle">
    <text x="0" y="-606">0 K</text>
    <text x="50" y="-606">50 K</text>
    <text x="100" y="-606">100 K</text>
    <text x="150" y="-606">150 K</text>
    <text x="200" y="-606">200 K</text>
    <text x="250" y="-606">250 K</text>
    <text x="300" y="-606">300 K</text>
    <text x="350" y="-606">350 K</text>
    <text x="400" y="-606">400 K</text>
    <text x="450" y="-606">450 K</text>
    <text x="500" y="-606">500 K</text>
    <text x="550" y="-606">550 K</text>
    <text x="600" y="-606">600 K</text>
    <text x="650" y="-606">650 K</text>
   </g>
   <g id="text_grid_c" font-size="12px" fill="#ff0000" text-anchor="middle">
    <text x="23.15" y="16">-250 °C</text>
    <text x="73.15" y="16">-200 °C</text>
    <text x="123.15" y="16">-150 °C</text>
    <text x="173.15" y="16">-100 °C</text>
    <text x="223.15" y="16">-50 °C</text>
    <text x="273.15" y="16">0 °C</text>
    <text x="323.15" y="16">50 °C</text>
    <text x="373.15" y="16">100 °C</text>
    <text x="423.15" y="16">150 °C</text>
    <text x="473.15" y="16">200 °C</text>
    <text x="523.15" y="16">250 °C</text>
    <text x="573.15" y="16">300 °C</text>
    <text x="623.15" y="16">350 °C</text>
   </g>
   <g id="tick_c" stroke="#ff0000">
    <line x1="23.15" y1="0" x2="23.15" y2="5" />
    <line x1="73.15" y1="0" x2="73.15" y2="5" />
    <line x1="123.15" y1="0" x2="123.15" y2="5" />
    <line x1="173.15" y1="0" x2="173.15" y2="5" />
    <line x1="223.15" y1="0" x2="223.15" y2="5" />
    <line x1="273.15" y1="0" x2="273.15" y2="5" />
    <line x1="323.15" y1="0" x2="323.15" y2="5" />
    <line x1="373.15" y1="0" x2="373.15" y2="5" />
    <line x1="423.15" y1="0" x2="423.15" y2="5" />
    <line x1="473.15" y1="0" x2="473.15" y2="5" />
    <line x1="523.15" y1="0" x2="523.15" y2="5" />
    <line x1="573.15" y1="0" x2="573.15" y2="5" />
    <line x1="623.15" y1="0" x2="623.15" y2="5" />
   </g>
  </g>


  <g id="main" font-family="Helvetica,Arial,sans-serif">
   <rect fill="#ffffff" x="-58" y="-631" width="768" height="648" />

   <g id="shade" stroke="none">
    <path id="S" fill="url(#solid)" d="M 650 -600 L 0 -600 L 0 0 L 212 0 Q 240 -85 273.16 -139.328 L 273.15 -250.286 C 273 -380 270 -400 251.17 -416.101 L 256.15 -427.21 L 272.99 -440.05 L 355 -467.278 C 400 -470 550 -490 650 -506" />
    <path id="L" fill="url(#liquid)" d="M 650 -368 L 647 -367.184 Q 480 -330 373.15 -250.286 Q 310 -200 273.16 -139.328 L 273.15 -250.286 C 273 -380 270 -400 251.17 -416.101 L 256.15 -427.21 L 272.99 -440.05 L 355 -467.278 C 400 -470 550 -490 650 -506" />
    <path id="G" fill="url(#gas)" d="M 650 -368 L 647 -367.184 Q 480 -330 373.15 -250.286 Q 310 -200 273.16 -139.328 Q 240 -85 212 0 L 650 0" />
   </g>

   <use xlink:href="#grid" />

   <g id="boundary_phase" fill="none" stroke="#000000" stroke-width="2">
    <path id="GL" d="M 647 -367.184 Q 480 -330 373.15 -250.286 Q 310 -200 273.16 -139.328" />
    <path id="GS" d="M 273.16 -139.328 Q 240 -85 212 0" />
    <path id="SL" d="M 273.16 -139.328 L 273.15 -250.286 C 273 -380 270 -400 251.17 -416.101 L 256.15 -427.21 L 272.99 -440.05 L 355 -467.278 C 400 -470 550 -490 650 -506" />
   </g>
   <g id="boundary_solid" fill="none" stroke="#3366ff" stroke-width="2">
    <path id="IhIc" stroke-dasharray="7, 4" stroke-width="2" d="M 168 -343 L 170 -160" />
    <path id="Ih2" d="M 251.17 -416.101 L 238.45 -416.409 L 0 -413" />
    <path id="IcI11" d="M 72 -414 L 72 0" />
    <path id="I2I9" d="M 162 -415 Q 200 -428 0 -428" />
    <path id="I2I3" d="M 238.45 -416.409 L 248.85 -426.847" />
    <path id="I3I5" d="M 256.15 -427.21 L 248.85 -426.847 L 218.15 -440" />

    <path id="I2I6" d="M 272.99 -440.05 L 218.15 -440 L 130 -440 L 0 -440" />
    <path id="I6I15" d="M 130 -440 L 130 -458.8" />
    <path id="I6I8" d="M 355 -467.278 L 278.15 -466.111 Q 200 -460 130 -458.8 L 0 -459" />
    <path id="I7I8" d="M 278.15 -466.111 Q 278 -530 100.15 -539.62" />
    <path id="I10I7" d="M 650 -540 L 100.15 -539.62 L 0 -540" />
    <path id="I11I10" d="M 650 -575 L 0 -580" />
   </g>

   <g id="text_point_1atm" font-size="12px" font-weight="bold" fill="#ff0000" stroke="#ff0000">
    <line x1="0" y1="-250.286" x2="650" y2="-250.286" />
    <line x1="273.15" y1="0" x2="273.15" y2="-600" />
    <line x1="373.15" y1="0" x2="373.15" y2="-600" />
    <g text-anchor="end" transform="translate(273.15 -250.286)">
     <ellipse fill="none" cx="0" cy="0" rx="5" ry="5" />
     <g transform="translate(-10,15)" font-size="16px" stroke="none">
      <switch>
       <text systemLanguage="de">Schmelzpunkt bei 1 atm</text>
       <text systemLanguage="fr">Point de fusion à 1 atm</text>
       <text systemLanguage="it">Punto di fusione a 1 atm</text>
       <text systemLanguage="pl">Punkt zamarzania przy 1 atm</text>
       <text systemLanguage="pt">Ponto de fusão a 1 atm</text>
       <text>Freezing point at 1 atm</text>
      </switch>
     </g>
     <text stroke="none" x="-10" y="0" dy="2.5em">273.15 K (0 °C), 101.325 kPa</text>
    </g>
    <g text-anchor="start" transform="translate(373.15 -250.286)">
     <ellipse fill="none" cx="0" cy="0" rx="5" ry="5" />
     <g transform="translate(5,15)" font-size="16px" stroke="none">
      <switch>
       <text systemLanguage="de">Siedepunkt bei 1 atm</text>
       <text systemLanguage="fr">Point d'ébullition à 1 atm</text>
       <text systemLanguage="it">Punto di ebollizione a 1 atm</text>
       <text systemLanguage="pl">Punkt wrzenia przy 1 atm</text>
       <text systemLanguage="pt">Ponto de ebulição a 1 atm</text>
       <text>Boiling point at 1 atm</text>
      </switch>
     </g>
     <text stroke="none" x="5" y="0" dy="2.5em">373.15 K (100 °C), 101.325 kPa</text>
    </g>
    <g fill="#cc66ff" stroke="#cc00ff">
     <g transform="translate(273.15,-250)">
      <ellipse cx="0" cy="0" rx="3" ry="3" fill="none"/>
      <text transform="translate(-5,-10)" y="-3em" text-anchor="end" stroke="none">
       <tspan x="0" dy="1em" font-size="16">STP</tspan>
       <tspan x="0" dy="1em">273.15 K (0 °C),</tspan>
       <tspan x="0" dy="1em">100 kPa &#160;</tspan>
      </text>
     </g>
     <g transform="translate(293.15,-250.286)">
      <ellipse cx="0" cy="0" rx="3" ry="3" fill="none"/>
      <text transform="translate(-3,-10)" y="-4em" text-anchor="start" stroke="none">
       <tspan x="0" dy="1em" font-size="16">NTP</tspan>
       <tspan x="0" dy="1em">293.15 K</tspan>
       <tspan x="0" dy="1em">(20 °C),</tspan>
       <tspan x="0" dy="1em">101.325 kPa</tspan>
      </text>
     </g>
     <g transform="translate(298.15,-250.286)">
      <ellipse cx="0" cy="0" rx="3" ry="3" fill="none"/>
      <text transform="translate(0,-10)" y="1em" text-anchor="start" stroke="none">
       <tspan x="0" dy="1em" font-size="16">SATP</tspan>
       <tspan x="0" dy="1em">298.15 K</tspan>
       <tspan x="0" dy="1em">(25 °C),</tspan>
       <tspan x="0" dy="1em">101.325 kPa</tspan>
      </text>
     </g>
    </g>
   </g>
   <g id="text_point" font-size="12px" fill="#000000" stroke="#000000">
    <g font-weight="bold" text-anchor="end" transform="translate(647.096 -367.184)">
     <ellipse fill="none" cx="0" cy="0" rx="5" ry="5" />
     <g transform="translate(-5,-40)" font-size="16px" stroke="none">
      <switch>
       <text systemLanguage="de">Kritischer Punkt</text>
       <text systemLanguage="fr">Point critique</text>
       <text systemLanguage="it">Punto critico</text>
       <text systemLanguage="pl">Punkt krytyczny</text>
       <text systemLanguage="pt">Ponto crítico</text>
       <text>Critical point</text>
      </switch>
     </g>
     <text stroke="none" x="0" y="0" dy="-2em">
      <tspan>647.096 K</tspan>
      <tspan x="0" dy="1em">(373.946 °C),</tspan>
      <tspan x="0" dy="1em">22.064 MPa &#160;</tspan>
     </text>
    </g>
    <g font-weight="bold" text-anchor="start" transform="translate(273.16 -139.325)">
     <ellipse fill="none" cx="0" cy="0" rx="5" ry="5" />
     <g transform="translate(5,16)" font-size="16px" stroke="none">
      <switch>
       <text systemLanguage="de">Tripelpunkt</text>
       <text systemLanguage="fr">Point triple solide/liquide/vapeur</text>
       <text systemLanguage="it">Punto triplo</text>
       <text systemLanguage="pl">Punkt potrójny ciało stałe/ciecz/para</text>
       <text systemLanguage="pt">Ponto triplo sólido/líquido/vapor</text>
       <text>Solid/Liquid/Vapour triple point</text>
      </switch>
     </g>
     <text stroke="none" x="5" y="0" dy="2.5em">273.16 K (0.01 °C), 611.657 Pa</text>
    </g>
    <g transform="translate(251.17 -416.101)">
     <ellipse fill="none" cx="0" cy="0" rx="3" ry="3" />
     <text stroke="none" text-anchor="start" x="10" y="0.7em">251.165 K, 209.9 MPa</text>
    </g>
    <g transform="translate(256.15 -427.21)">
     <ellipse fill="none" cx="0" cy="0" rx="3" ry="3" />
     <text stroke="none" text-anchor="start" x="10" y="0.5em">256.164 K, 350.1 MPa</text>
    </g>
    <g transform="translate(272.99 -440.05)">
     <ellipse fill="none" cx="0" cy="0" rx="3" ry="3" />
     <text stroke="none" text-anchor="start" x="10" y="0.5em">272.99 K, 632.4 MPa</text>
    </g>
    <g transform="translate(355 -467.278)">
     <ellipse fill="none" cx="0" cy="0" rx="3" ry="3" />
     <text stroke="none" text-anchor="start" x="5" y="1em">355.00 K, 2.216 GPa</text>
    </g>
    <g transform="translate(238.45 -416.409)">
     <ellipse fill="none" cx="0" cy="0" rx="3" ry="3" />
     <text stroke="none" text-anchor="end" x="0" y="1em">238.5 K, 212.9 MPa</text>
    </g>
    <g transform="translate(248.85 -426.847)">
     <ellipse fill="none" cx="0" cy="0" rx="3" ry="3" />
     <text stroke="none" text-anchor="end" x="-10" y="0.3em">248.85 K, 344.3 MPa</text>
    </g>
    <g transform="translate(218.15 -440)">
     <ellipse fill="none" cx="0" cy="0" rx="3" ry="3" />
     <text stroke="none" text-anchor="end" x="20" y="-5">218 K, 620 MPa</text>
    </g>
    <g transform="translate(278.15 -466.111)">
     <ellipse fill="none" cx="0" cy="0" rx="3" ry="3" />
     <text stroke="none" text-anchor="start" x="5" y="-5">278 K, 2.1 GPa</text>
    </g>
    <g transform="translate(100.15 -539.62)">
     <ellipse fill="none" cx="0" cy="0" rx="3" ry="3" />
     <text stroke="none" text-anchor="start" x="5" y="-5">100 K, 62 GPa</text>
    </g>
   </g>
   <g id="text_phase" font-size="24px" text-anchor="middle">
    <g fill="#0000ff">
     <g transform="translate(48,-360)" text-anchor="start" font-weight="bold">
      <switch>
       <text systemLanguage="de">Eis</text>
       <text systemLanguage="fr">Solide</text>
       <text systemLanguage="it">Solido</text>
       <text systemLanguage="pl">Ciało stałe</text>
       <text systemLanguage="pt">Sólido</text>
       <text>Solid</text>
      </switch>
     </g>
     <text x="125" y="-305"><tspan>I</tspan><tspan dy="0.1em">c</tspan></text>
     <text x="225" y="-305"><tspan>I</tspan><tspan dy="0.1em">h</tspan></text>
     <g transform="translate(365,-580)">
      <switch>
       <text systemLanguage="de"><tspan>XI</tspan><tspan font-size="16px"> (hexagonal)</tspan></text>
       <text systemLanguage="fr"><tspan>XI</tspan><tspan font-size="16px"> (hexagonal)</tspan></text>
       <text systemLanguage="it"><tspan>XI</tspan><tspan font-size="16px"> (esagonale)</tspan></text>
       <text systemLanguage="pl"><tspan font-size="16px">Pbcm (przewidywana)</tspan></text>
       <text systemLanguage="pt"><tspan>XI</tspan><tspan font-size="16px"> (hexagonal)</tspan></text>
       <text><tspan>XI</tspan><tspan font-size="16px"> (hexagonal)</tspan></text>
      </switch>
     </g>
     <text x="325" y="-550">X</text>
     <text x="325" y="-510">VII</text>
     <text x="295" y="-450">VI</text>
     <text x="37" y="-510">VIII</text>
     <text x="37" y="-441">XV</text>
     <text x="37" y="-414">IX</text>
     <g transform="translate(37,-305)">
      <switch>
       <text systemLanguage="de">
        <tspan>XI</tspan>
        <tspan font-size="16px" x="0" dy="2em">(ortho-</tspan>
        <tspan font-size="16px" x="0" dy="1em">rhomb.)</tspan>
       </text>
       <text systemLanguage="fr">
        <tspan>XI</tspan>
        <tspan font-size="16px" x="0" dy="2em">(ortho-</tspan>
        <tspan font-size="16px" x="0" dy="1em">rhomb.)</tspan>
       </text>
       <text systemLanguage="it">
        <tspan>XI</tspan>
        <tspan font-size="16px" x="0" dy="2em">(orto-</tspan>
        <tspan font-size="16px" x="0" dy="1em">rombico)</tspan>
       </text>
       <text systemLanguage="pl">
        <tspan>XI</tspan>
       </text>
       <text systemLanguage="pt">
        <tspan>XI</tspan>
        <tspan font-size="16px" x="0" dy="2em">(ortor-</tspan>
        <tspan font-size="16px" x="0" dy="1em">rômbico)</tspan>
       </text>
       <text>
        <tspan>XI</tspan>
        <tspan font-size="16px" x="0" dy="2em">(ortho-</tspan>
        <tspan font-size="16px" x="0" dy="1em">rhombic)</tspan>
       </text>
      </switch>
     </g>
     <line stroke="#0099ff" stroke-width="2" x1="140" y1="-435" x2="140" y2="-473" />
     <ellipse fill="#66ccff" stroke="#0099ff" cx="140" cy="-488" rx="15" ry="15" />
     <text x="140" y="-480">II</text>
     <line stroke="#0099ff" stroke-width="2" x1="245" y1="-435" x2="245" y2="-473" />
     <ellipse fill="#66ccff" stroke="#0099ff" cx="245" cy="-488" rx="15" ry="15" />
     <text x="245" y="-480">V</text>
     <line stroke="#0099ff" stroke-width="2" x1="245" y1="-420" x2="245" y2="-382" />
     <ellipse fill="#66ccff" stroke="#0099ff" cx="245" cy="-367" rx="15" ry="15" />
     <text x="245" y="-360">III</text>
    </g>
    <g transform="translate(450,-360)" font-weight="bold" fill="#009900">
     <switch>
      <text systemLanguage="de">Wasser</text>
      <text systemLanguage="fr">Liquide</text>
      <text systemLanguage="it">Liquido</text>
      <text systemLanguage="pl">Ciecz</text>
      <text systemLanguage="pt">Líquido</text>
      <text>Liquid</text>
     </switch>
    </g>
    <g transform="translate(500,-70)" font-weight="bold" fill="#996600">
     <switch>
      <text systemLanguage="de">Dampf</text>
      <text systemLanguage="fr">Vapeur</text>
      <text systemLanguage="it">Vapore</text>
      <text systemLanguage="pl">Para</text>
      <text systemLanguage="pt">Vapor</text>
      <text>Vapour</text>
     </switch>
    </g>
   </g>
  </g>
 </defs>
 <use xlink:href="#main" />
</svg>
