<?xml version="1.0" encoding="UTF-8" standalone="no"?>
<svg
   xmlns:dc="http://purl.org/dc/elements/1.1/"
   xmlns:cc="http://creativecommons.org/ns#"
   xmlns:rdf="http://www.w3.org/1999/02/22-rdf-syntax-ns#"
   xmlns:svg="http://www.w3.org/2000/svg"
   xmlns="http://www.w3.org/2000/svg"
   xmlns:sodipodi="http://sodipodi.sourceforge.net/DTD/sodipodi-0.dtd"
   xmlns:inkscape="http://www.inkscape.org/namespaces/inkscape"
   width="210mm"
   height="297mm"
   viewBox="0 0 210 297"
   version="1.1"
   id="svg756"
   sodipodi:docname="Phase_diagram_of_water.svg"
   inkscape:version="1.0 (4035a4f, 2020-05-01)">
  <defs
     id="defs750" />
  <sodipodi:namedview
     id="base"
     pagecolor="#ffffff"
     bordercolor="#666666"
     borderopacity="1.0"
     inkscape:pageopacity="0.0"
     inkscape:pageshadow="2"
     inkscape:zoom="1.1268584"
     inkscape:cx="428.80347"
     inkscape:cy="827.13321"
     inkscape:document-units="mm"
     inkscape:current-layer="layer1"
     inkscape:document-rotation="0"
     showgrid="false"
     inkscape:window-width="1280"
     inkscape:window-height="700"
     inkscape:window-x="0"
     inkscape:window-y="23"
     inkscape:window-maximized="0" />
  <metadata
     id="metadata753">
    <rdf:RDF>
      <cc:Work
         rdf:about="">
        <dc:format>image/svg+xml</dc:format>
        <dc:type
           rdf:resource="http://purl.org/dc/dcmitype/StillImage" />
        <dc:title />
      </cc:Work>
    </rdf:RDF>
  </metadata>
  <g
     inkscape:label="Capa 1"
     inkscape:groupmode="layer"
     id="layer1">
    <path
       style="fill:#000000;stroke-width:0.264583"
       d="m 64.935549,244.94962 c 0,-0.3186 -0.22397,-0.55483 -0.59531,-0.62787 l -0.59531,-0.11711 0.59531,-0.19674 c 0.56348,-0.18621 0.59531,-0.33538 0.59531,-2.78966 0,-1.81564 -0.0991,-2.63919 -0.33072,-2.74727 -0.26459,-0.12347 -0.26459,-0.18521 0,-0.30868 0.41288,-0.19268 0.44793,-2.79762 0.0431,-3.20246 -0.20713,-0.20713 -0.20713,-0.3374 0,-0.46541 0.39714,-0.24545 0.36293,-1.91938 -0.0431,-2.10886 -0.26459,-0.12348 -0.26459,-0.18521 0,-0.30868 0.1819,-0.0849 0.33072,-0.43216 0.33072,-0.77171 0,-0.33954 -0.14882,-0.68681 -0.33072,-0.7717 -0.26459,-0.12347 -0.26459,-0.18521 0,-0.30868 0.1819,-0.0849 0.33072,-0.37262 0.33072,-0.63941 0,-0.26678 -0.14882,-0.55452 -0.33072,-0.63941 -0.26459,-0.12347 -0.26459,-0.18521 0,-0.30868 0.1819,-0.0849 0.33072,-0.31309 0.33072,-0.50712 0,-0.19402 -0.14882,-0.42223 -0.33072,-0.50711 -0.26459,-0.12348 -0.26459,-0.18521 0,-0.30868 0.41121,-0.19191 0.4378,-0.904 0.0338,-0.904 -0.21352,0 -0.20991,-0.10492 0.0129,-0.37332 0.22234,-0.26791 0.22786,-0.42397 0.0195,-0.55272 -0.20832,-0.12875 -0.2028,-0.28481 0.0195,-0.55272 0.25016,-0.30143 0.20168,-0.37332 -0.25174,-0.37332 -0.30886,0 -0.56156,-0.11906 -0.56156,-0.26458 0,-0.14553 0.23812,-0.26459 0.52916,-0.26459 0.49317,0 0.52917,-0.17639 0.52917,-2.59291 0,-1.51438 -0.11965,-2.71257 -0.28764,-2.88056 -0.20713,-0.20713 -0.20713,-0.33739 0,-0.4654 0.40713,-0.25162 0.37009,-2.97439 -0.0431,-3.1672 -0.26458,-0.12348 -0.26458,-0.18521 0,-0.30868 0.42994,-0.20064 0.42994,-1.87193 0,-2.07257 -0.26458,-0.12347 -0.26458,-0.18521 0,-0.30868 0.39131,-0.18262 0.44396,-1.33195 0.0716,-1.56211 -0.16349,-0.10104 -0.14152,-0.34854 0.0595,-0.67047 0.2407,-0.38541 0.24401,-0.58497 0.0135,-0.81543 -0.23046,-0.23047 -0.22884,-0.4348 0.007,-0.83493 0.24456,-0.41557 0.23809,-0.55639 -0.03,-0.65323 -0.27127,-0.098 -0.27478,-0.20417 -0.017,-0.51476 0.25946,-0.31263 0.24838,-0.44046 -0.0551,-0.63573 -0.32803,-0.21107 -0.32571,-0.28052 0.017,-0.509 0.35278,-0.23519 0.35278,-0.29398 0,-0.52917 -0.35278,-0.23518 -0.35278,-0.29353 0,-0.52511 0.32233,-0.2116 0.28505,-0.2613 -0.19844,-0.26459 -0.32742,-0.002 -0.59531,-0.12311 -0.59531,-0.26863 0,-0.14552 0.23813,-0.26459 0.52917,-0.26459 0.4953,0 0.52916,-0.17639 0.52916,-2.75607 0,-1.94616 -0.0972,-2.80143 -0.33072,-2.91042 -0.26459,-0.12347 -0.26459,-0.18521 0,-0.30868 0.44592,-0.2081 0.44592,-2.9228 0,-3.1309 -0.26459,-0.12347 -0.26459,-0.18521 0,-0.30868 0.40645,-0.18968 0.43779,-1.74943 0.0431,-2.14413 -0.20713,-0.20713 -0.20713,-0.3374 0,-0.46541 0.39463,-0.2439 0.36337,-1.39002 -0.0431,-1.5797 -0.26459,-0.12347 -0.26459,-0.18521 0,-0.30868 0.42806,-0.19976 0.42806,-1.07906 0,-1.27882 -0.26459,-0.12347 -0.26459,-0.18521 0,-0.30868 0.42695,-0.19925 0.42695,-0.82085 0,-0.99409 -0.24903,-0.10105 -0.23269,-0.20454 0.0662,-0.41893 0.35277,-0.25309 0.35277,-0.31412 0,-0.54931 -0.35278,-0.23518 -0.35278,-0.29398 0,-0.52916 0.35277,-0.23519 0.35277,-0.29398 0,-0.52917 -0.325,-0.21666 -0.33293,-0.30585 -0.0438,-0.49246 0.26592,-0.17162 0.2006,-0.27293 -0.26459,-0.41038 l -0.61768,-0.18251 0.59532,-0.24255 c 0.56121,-0.22866 0.59531,-0.39331 0.59531,-2.87486 0,-1.84714 -0.0987,-2.67835 -0.33073,-2.78665 -0.26458,-0.12347 -0.26458,-0.18521 0,-0.30868 0.41288,-0.19268 0.44793,-2.79762 0.0431,-3.20246 -0.20713,-0.20713 -0.20713,-0.3374 0,-0.46541 0.39714,-0.24545 0.36294,-1.91938 -0.0431,-2.10886 -0.26458,-0.12347 -0.26458,-0.18521 0,-0.30868 0.42893,-0.20017 0.42893,-1.34323 0,-1.5434 -0.26458,-0.12348 -0.26458,-0.18521 0,-0.30868 0.42806,-0.19977 0.42806,-1.07906 0,-1.27882 -0.26458,-0.12348 -0.26458,-0.18521 0,-0.30868 0.42695,-0.19925 0.42695,-0.82086 0,-0.9941 -0.25228,-0.10236 -0.24063,-0.19695 0.0491,-0.39876 0.30441,-0.21201 0.31499,-0.34272 0.0533,-0.65804 -0.24445,-0.29455 -0.24971,-0.44099 -0.0209,-0.58241 0.2236,-0.13819 0.20929,-0.25649 -0.0533,-0.44057 -0.27909,-0.19565 -0.28538,-0.28152 -0.0282,-0.38585 0.5183,-0.21031 0.38725,-0.61927 -0.19844,-0.61927 -0.29104,0 -0.52917,-0.11947 -0.52917,-0.26548 0,-0.17667 12.63597,-0.24306 37.769281,-0.19844 l 37.76927,0.067 0.067,40.28281 c 0.0446,26.80912 -0.0218,40.28281 -0.19844,40.28281 -0.14598,0 -0.26543,-0.11907 -0.26543,-0.26459 0,-0.39206 -2.57104,-0.33035 -2.75608,0.0662 -0.12347,0.26458 -0.1852,0.26458 -0.30867,0 -0.0877,-0.18789 -0.63618,-0.33073 -1.27,-0.33073 -0.61362,0 -1.27342,0.14883 -1.46624,0.33073 -0.28046,0.26458 -0.37482,0.26458 -0.47184,0 -0.0715,-0.19505 -0.59163,-0.33073 -1.26779,-0.33073 -0.65852,0 -1.21222,0.14077 -1.30087,0.33073 -0.12347,0.26458 -0.18521,0.26458 -0.30868,0 -0.0928,-0.19881 -0.67322,-0.33073 -1.45521,-0.33073 -1.12448,0 -1.30087,0.0718 -1.30087,0.52917 0,0.29104 -0.11906,0.52916 -0.26458,0.52916 -0.14552,0 -0.26458,-0.23812 -0.26458,-0.52916 0,-0.44713 -0.17639,-0.52917 -1.13771,-0.52917 -0.62574,0 -1.26715,0.12944 -1.42535,0.28764 -0.20713,0.20712 -0.33739,0.20712 -0.46541,0 -0.24813,-0.40149 -2.44732,-0.36557 -2.63803,0.0431 -0.12347,0.26458 -0.18521,0.26458 -0.30868,0 -0.0923,-0.19768 -0.66881,-0.33073 -1.43316,-0.33073 -0.76435,0 -1.34091,0.13305 -1.43316,0.33073 -0.12347,0.26458 -0.18521,0.26458 -0.30868,0 -0.19047,-0.40816 -2.27463,-0.44176 -2.67329,-0.0431 -0.20713,0.20712 -0.3374,0.20712 -0.46541,0 -0.0978,-0.1582 -0.70653,-0.28764 -1.35278,-0.28764 -0.99862,0 -1.17501,0.0794 -1.17501,0.52917 0,0.29104 -0.11906,0.52916 -0.26458,0.52916 -0.14553,0 -0.26459,-0.23812 -0.26459,-0.52916 0,-0.45742 -0.17639,-0.52917 -1.30087,-0.52917 -0.78199,0 -1.36243,0.13192 -1.4552,0.33073 -0.12348,0.26458 -0.18521,0.26458 -0.30868,0 -0.19048,-0.40816 -2.27464,-0.44176 -2.6733,-0.0431 -0.20713,0.20712 -0.3374,0.20712 -0.46541,0 -0.24813,-0.40149 -2.44732,-0.36557 -2.63803,0.0431 -0.12347,0.26458 -0.18521,0.26458 -0.30868,0 -0.0923,-0.19768 -0.66881,-0.33073 -1.43316,-0.33073 -0.764351,0 -1.340911,0.13305 -1.433161,0.33073 -0.12347,0.26458 -0.18521,0.26458 -0.30868,0 -0.0895,-0.1919 -0.64846,-0.33073 -1.33144,-0.33073 -0.97245,0 -1.21927,0.1035 -1.41965,0.59531 l -0.24255,0.59531 -0.17666,-0.59531 c -0.14769,-0.49767 -0.36325,-0.59531 -1.31438,-0.59531 -0.65147,0 -1.20368,0.14135 -1.29206,0.33073 -0.12347,0.26458 -0.1852,0.26458 -0.30867,0 -0.0922,-0.19768 -0.66881,-0.33073 -1.43317,-0.33073 -0.76435,0 -1.34091,0.13305 -1.43316,0.33073 -0.12347,0.26458 -0.1852,0.26458 -0.30867,0 -0.19048,-0.40816 -2.27464,-0.44176 -2.6733,-0.0431 -0.20713,0.20712 -0.3374,0.20712 -0.46541,0 -0.24813,-0.40149 -2.44732,-0.36557 -2.63803,0.0431 -0.12347,0.26458 -0.18521,0.26458 -0.30868,0 -0.0928,-0.19881 -0.67322,-0.33073 -1.45521,-0.33073 -1.12448,0 -1.30087,0.0718 -1.30087,0.52917 0,0.29104 -0.11906,0.52916 -0.26458,0.52916 -0.14552,0 -0.26459,-0.23812 -0.26459,-0.52916 0,-0.44713 -0.17638,-0.52917 -1.1377,-0.52917 -0.62574,0 -1.26715,0.12944 -1.42535,0.28764 -0.20713,0.20712 -0.3374,0.20712 -0.46541,0 -0.24813,-0.40149 -2.44732,-0.36557 -2.63803,0.0431 -0.12347,0.26458 -0.18521,0.26458 -0.30868,0 -0.0923,-0.19768 -0.66881,-0.33073 -1.43316,-0.33073 -0.76435,0 -1.34091,0.13305 -1.43316,0.33073 -0.12347,0.26458 -0.18521,0.26458 -0.30868,0 -0.19048,-0.40816 -2.27464,-0.44176 -2.6733,-0.0431 -0.20713,0.20712 -0.33739,0.20712 -0.46541,0 -0.0978,-0.1582 -0.70652,-0.28764 -1.35278,-0.28764 -0.99862,0 -1.17501,0.0794 -1.17501,0.52917 0,0.29104 -0.11906,0.52916 -0.26458,0.52916 -0.14552,0 -0.26458,-0.22984 -0.26458,-0.51076 z m 61.383341,-12.38327 c 0,-8.51367 -0.40135,-14.83624 -0.90904,-24.70131 -0.53714,-5.38723 0.12753,-10.2155 -1.33069,-15.32132 -2.01051,-5.67014 -2.61619,-6.447 -6.6507,-8.5304 -4.88963,-2.52498 -8.40362,-3.47799 -16.76175,-4.54589 -8.658042,-1.10616 -15.880749,-0.73771 -21.252701,-0.81498 l -13.94929,-0.19724 v 32.7088 32.7088 h 30.42709 30.427081 z m 12.7,8.68288 c 0,-1.84033 -0.0988,-2.66987 -0.33073,-2.77813 -0.26458,-0.12347 -0.26458,-0.18521 0,-0.30868 0.41318,-0.19281 0.45022,-2.91558 0.0431,-3.1672 -0.20713,-0.12801 -0.20713,-0.25828 0,-0.4654 0.3947,-0.39471 0.36335,-1.95446 -0.0431,-2.14413 -0.26458,-0.12348 -0.26458,-0.18521 0,-0.30868 0.1819,-0.0849 0.33073,-0.43216 0.33073,-0.77171 0,-0.33954 -0.14883,-0.68681 -0.33073,-0.7717 -0.26458,-0.12347 -0.26458,-0.18521 0,-0.30868 0.1819,-0.0849 0.33073,-0.37262 0.33073,-0.63941 0,-0.26678 -0.14883,-0.55452 -0.33073,-0.63941 -0.26458,-0.12347 -0.26458,-0.18521 0,-0.30868 0.1819,-0.0849 0.33073,-0.31309 0.33073,-0.50712 0,-0.19402 -0.14883,-0.41316 -0.33073,-0.48697 -0.24913,-0.10109 -0.23336,-0.20172 0.0639,-0.40791 0.31017,-0.21511 0.32568,-0.34269 0.0724,-0.59593 -0.2231,-0.22309 -0.23881,-0.42272 -0.0511,-0.64892 0.18643,-0.22464 0.18045,-0.38274 -0.0191,-0.5061 -0.20832,-0.12875 -0.2028,-0.28481 0.0196,-0.55272 0.25015,-0.30143 0.20167,-0.37332 -0.25175,-0.37332 -0.30886,0 -0.56156,-0.11906 -0.56156,-0.26458 0,-0.14553 0.23812,-0.26459 0.52917,-0.26459 0.49368,0 0.52916,-0.17639 0.52916,-2.63022 0,-1.60861 -0.11172,-2.69926 -0.28763,-2.80798 -0.20713,-0.12801 -0.20713,-0.25828 0,-0.46541 0.40484,-0.40485 0.36979,-3.00978 -0.0431,-3.20246 -0.26458,-0.12348 -0.26458,-0.18521 0,-0.30868 0.1819,-0.0849 0.33073,-0.55122 0.33073,-1.03629 0,-0.48507 -0.14883,-0.9514 -0.33073,-1.03628 -0.26458,-0.12347 -0.26458,-0.18521 0,-0.30868 0.39131,-0.18262 0.44397,-1.33195 0.0716,-1.56211 -0.1635,-0.10104 -0.14153,-0.34854 0.0595,-0.67047 0.24069,-0.38541 0.24401,-0.58497 0.0135,-0.81543 -0.23046,-0.23047 -0.22884,-0.4348 0.007,-0.83493 0.24455,-0.41557 0.23809,-0.55639 -0.03,-0.65323 -0.27127,-0.098 -0.27478,-0.20417 -0.017,-0.51476 0.25946,-0.31263 0.24838,-0.44046 -0.0551,-0.63573 -0.32804,-0.21107 -0.32572,-0.28052 0.017,-0.509 0.35278,-0.23519 0.35278,-0.29398 0,-0.52917 -0.35278,-0.23518 -0.35278,-0.29353 0,-0.52511 0.32232,-0.2116 0.28505,-0.2613 -0.19844,-0.26459 -0.32741,-0.002 -0.5953,-0.12311 -0.5953,-0.26863 0,-0.14552 0.23812,-0.26459 0.52917,-0.26459 0.4953,0 0.52916,-0.17639 0.52916,-2.75607 0,-1.94616 -0.0972,-2.80143 -0.33073,-2.91042 -0.26458,-0.12347 -0.26458,-0.18521 0,-0.30868 0.20395,-0.0952 0.33073,-0.69526 0.33073,-1.56545 0,-0.87019 -0.12678,-1.47027 -0.33073,-1.56545 -0.26458,-0.12347 -0.26458,-0.18521 0,-0.30868 0.40603,-0.18948 0.44024,-1.86342 0.0431,-2.10887 -0.20713,-0.12801 -0.20713,-0.25828 0,-0.46541 0.39137,-0.39137 0.36379,-1.42508 -0.0431,-1.61496 -0.26458,-0.12347 -0.26458,-0.18521 0,-0.30868 0.1819,-0.0849 0.33073,-0.37262 0.33073,-0.63941 0,-0.26679 -0.14883,-0.55452 -0.33073,-0.63941 -0.26458,-0.12347 -0.26458,-0.18521 0,-0.30868 0.1819,-0.0849 0.33073,-0.31309 0.33073,-0.50712 0,-0.19402 -0.14883,-0.41316 -0.33073,-0.48697 -0.24903,-0.10105 -0.23269,-0.20454 0.0661,-0.41893 0.35278,-0.25309 0.35278,-0.31412 0,-0.54931 -0.35278,-0.23518 -0.35278,-0.29398 0,-0.52916 0.35278,-0.23519 0.35278,-0.29398 0,-0.52917 -0.325,-0.21666 -0.33293,-0.30585 -0.0438,-0.49246 0.26593,-0.17162 0.2006,-0.27293 -0.26459,-0.41038 l -0.61767,-0.18251 0.59531,-0.24255 c 0.56121,-0.22866 0.59531,-0.39331 0.59531,-2.87486 0,-1.84714 -0.0987,-2.67835 -0.33073,-2.78665 -0.26458,-0.12347 -0.26458,-0.18521 0,-0.30868 0.41318,-0.19281 0.45022,-2.91558 0.0431,-3.1672 -0.20713,-0.12801 -0.20713,-0.25828 0,-0.46541 0.3947,-0.3947 0.36335,-1.95444 -0.0431,-2.14412 -0.26458,-0.12347 -0.26458,-0.18521 0,-0.30868 0.1819,-0.0849 0.33073,-0.43215 0.33073,-0.7717 0,-0.33955 -0.14883,-0.68682 -0.33073,-0.7717 -0.26458,-0.12348 -0.26458,-0.18521 0,-0.30868 0.1819,-0.0849 0.33073,-0.37263 0.33073,-0.63941 0,-0.26679 -0.14883,-0.55453 -0.33073,-0.63941 -0.26458,-0.12348 -0.26458,-0.18521 0,-0.30868 0.1819,-0.0849 0.33073,-0.33158 0.33073,-0.54821 0,-0.31774 -0.26848,-0.36496 -1.38906,-0.24433 -0.76399,0.0822 -3.59172,0.33526 -6.28385,0.56226 -7.74702,0.65324 -13.20691,1.44247 -29.58737,4.27687 -0.62494,0.10813 -0.95091,0.62758 -1.69923,1.23887 -0.615906,0.50313 -1.578261,1.60915 -2.50727,2.41135 -0.841055,0.72625 -1.790524,1.71843 -1.790524,1.71843 0,0 2.269283,0.0605 4.937044,0.40404 8.80377,1.13361 13.13115,2.35453 17.81443,5.02614 2.85747,1.63007 3.73396,2.52949 4.89236,5.02037 2.3297,5.0095 2.26654,4.56878 3.1661,22.09271 0.56559,11.0182 0.80775,18.34317 0.80691,24.40781 l -0.001,8.6651 h 5.82083 5.82083 z m -39.451971,-67.46813 0.41597,-0.6388 -6.59792,0.18441 c -3.62886,0.10143 -6.87106,0.25296 -7.2049,0.33675 -5.440682,1.16357 1.489475,-0.40477 -1.50344,0.35958 -0.32859,0 -5.27612,1.49869 -8.09939,2.45344 l -3.3073,1.11843 3.04271,0.14566 c 1.67349,0.0801 6.15353,0.16942 9.95563,0.19844 5.96658,0.0455 9.074443,0.0148 8.616968,0.0686 3.490656,-2.73379 3.69952,-3.22975 4.681672,-4.2265 z m -26.03606,3.15373 c 2.05519,-0.81641 8.84945,-2.97382 10.40747,-3.30473 0.48335,-0.10266 0.83167,-0.2338 0.77405,-0.29142 -0.0576,-0.0576 -1.76277,-0.282 -3.78923,-0.49864 -2.02645,-0.21663 -4.19049,-0.46311 -4.80895,-0.54773 -4.163234,-0.37024 -3.56414,-0.28246 -6.15151,-0.61 -5.06765,-0.47162 -4.49792,-0.83513 -4.49792,2.86982 v 3.175 h 3.03582 c 2.75148,0 3.22263,-0.0742 5.03032,-0.7923 z m 29.769281,-4.9002 c 3.32954,-0.62156 11.41109,-1.8917 15.84294,-2.45191 8.75066,-1.10613 6.58886,-0.729 -8.66814,-0.62359 -6.52783,0.13806 -7.59322,0.0503 -14.715411,0.0356 l -3.10885,5.5e-4 -3.10885,5.6e-4 c -5.854753,0.0133 4.504143,-0.0229 -0.52917,5e-5 h -11.79074 -11.79073 l 0.0829,0.8468 0.0829,0.8468 7.27605,0.73245 c 4.00182,0.40286 8.64526,0.89819 10.31875,1.10075 4.80249,0.58129 15.81147,0.31409 20.108331,-0.48806 z m 29.36872,-4.12364 c 3.41974,-0.30642 6.26444,-0.6015 6.32156,-0.65574 0.0571,-0.0542 -0.038,-0.26948 -0.21129,-0.47832 -0.23719,-0.2858 -0.23953,-0.42644 -0.009,-0.56864 0.2236,-0.13819 0.20929,-0.25649 -0.0533,-0.44057 -0.27909,-0.19565 -0.28538,-0.28152 -0.0283,-0.38585 0.1819,-0.0738 0.33073,-0.24334 0.33073,-0.37673 0,-0.37695 -2.5775,-0.29447 -2.75607,0.0882 -0.12348,0.26458 -0.18521,0.26458 -0.30868,0 -0.20509,-0.43945 -2.75609,-0.4517 -2.75609,-0.0132 0,0.24694 -0.0706,0.24694 -0.3175,0 -0.42131,-0.42132 -2.50513,-0.41112 -2.70316,0.0132 -0.12347,0.26458 -0.18521,0.26458 -0.30868,0 -0.0928,-0.19881 -0.67322,-0.33073 -1.45521,-0.33073 -1.12448,0 -1.30087,0.0718 -1.30087,0.52916 0,0.29105 -0.11906,0.52917 -0.26458,0.52917 -0.14552,0 -0.26458,-0.23812 -0.26458,-0.52917 0,-0.45861 -0.17639,-0.52916 -1.32292,-0.52916 -0.85255,0 -1.32292,0.11289 -1.32292,0.3175 0,0.24694 -0.0705,0.24694 -0.3175,0 -0.42131,-0.42131 -2.50513,-0.41112 -2.70316,0.0132 -0.12347,0.26458 -0.18521,0.26458 -0.30868,0 -0.20604,-0.44151 -2.66028,-0.44151 -2.86632,0 -0.12347,0.26458 -0.18521,0.26458 -0.30868,0 -0.20508,-0.43945 -2.75607,-0.4517 -2.75607,-0.0132 0,0.24694 -0.0706,0.24694 -0.3175,0 -0.17463,-0.17463 -0.82947,-0.3175 -1.45521,-0.3175 -0.96132,0 -1.13771,0.082 -1.13771,0.52916 0,0.29105 -0.11906,0.52917 -0.26458,0.52917 -0.14553,0 -0.26459,-0.23812 -0.26459,-0.52917 0,-0.45741 -0.17639,-0.52916 -1.30087,-0.52916 -0.78199,0 -1.36243,0.13192 -1.4552,0.33073 -0.12348,0.26458 -0.18521,0.26458 -0.30868,0 -0.20508,-0.43945 -2.75608,-0.4517 -2.75608,-0.0132 0,0.24694 -0.0706,0.24694 -0.3175,0 -0.42131,-0.42132 -2.50514,-0.41112 -2.70316,0.0132 -0.12347,0.26458 -0.18521,0.26458 -0.30868,0 -0.0922,-0.19768 -0.66881,-0.33073 -1.43316,-0.33073 -0.764351,0 -1.340911,0.13305 -1.433161,0.33073 -0.12347,0.26458 -0.18521,0.26458 -0.30868,0 -0.0923,-0.19787 -0.66954,-0.33073 -1.43681,-0.33073 -1.11888,0 -1.2974,0.0759 -1.39957,0.59531 l -0.1171,0.59531 -0.19674,-0.59531 c -0.16345,-0.49456 -0.38929,-0.59531 -1.33446,-0.59531 -0.65147,0 -1.20368,0.14135 -1.29206,0.33073 -0.12347,0.26458 -0.18521,0.26458 -0.30868,0 -0.20604,-0.44151 -2.66028,-0.44151 -2.86632,0 -0.12347,0.26458 -0.18521,0.26458 -0.30868,0 -0.20508,-0.43945 -2.75607,-0.4517 -2.75607,-0.0132 0,0.24694 -0.0706,0.24694 -0.3175,0 -0.42132,-0.42132 -2.50514,-0.41112 -2.70317,0.0132 -0.12347,0.26458 -0.1852,0.26458 -0.30867,0 -0.0928,-0.19881 -0.67322,-0.33073 -1.45521,-0.33073 -1.12448,0 -1.30087,0.0718 -1.30087,0.52916 0,0.29105 -0.11906,0.52917 -0.26458,0.52917 -0.14553,0 -0.26459,-0.23812 -0.26459,-0.52917 0,-0.45861 -0.17639,-0.52916 -1.32291,-0.52916 -0.85255,0 -1.32293,0.11289 -1.32293,0.3175 0,0.24694 -0.0706,0.24694 -0.3175,0 -0.42131,-0.42131 -2.50513,-0.41112 -2.70316,0.0132 -0.12347,0.26458 -0.1852,0.26458 -0.30867,0 -0.20604,-0.44151 -2.66029,-0.44151 -2.86633,0 -0.12347,0.26458 -0.1852,0.26458 -0.30868,0 -0.20507,-0.43945 -2.75607,-0.4517 -2.75607,-0.0132 0,0.24694 -0.0706,0.24694 -0.3175,0 -0.17463,-0.17463 -0.82947,-0.3175 -1.45521,-0.3175 h -1.13771 v 1.85208 1.85208 l 30.49323,6.9e-4 c 28.861541,6.4e-4 30.825941,-0.0291 36.710941,-0.55645 z"
       id="path786"
       sodipodi:nodetypes="cscsssssssssssssssssscssssssssssssssscsssssscsssssssssssssscssssscssssssssssssssssscssccssssssssssssssssssssssssssssssssssssssssscssssssssssssssssssssssssssssccsccscccccccscsssssssssssssssssscsssssssssssssscsssssscssssssssssssssssssssssscssssssssssssssscsssscsssscccccccsccscsccccsssccscsccsccccccccccsssscsscsssssscsssssssscsssssssssssssscscssssscssssssscsssssssscssssssscccsccs" />
    <text
       xml:space="preserve"
       style="font-style:normal;font-weight:normal;font-size:5.20325px;line-height:1.25;font-family:sans-serif;fill:#000000;fill-opacity:1;stroke:none;stroke-width:0.130082"
       x="77.107147"
       y="255.01512"
       id="text1024"><tspan
         sodipodi:role="line"
         id="tspan1022"
         x="77.107147"
         y="255.01512"
         style="stroke-width:0.130082">Temperatura (ºC)</tspan></text>
    <text
       xml:space="preserve"
       style="font-style:normal;font-weight:normal;font-size:4.90421px;line-height:1.25;font-family:sans-serif;fill:#000000;fill-opacity:1;stroke:none;stroke-width:0.122606"
       x="-219.3392"
       y="54.748074"
       id="text1028"
       transform="rotate(-90)"><tspan
         id="tspan1026"
         x="-219.3392"
         y="54.748074"
         style="stroke-width:0.122606"
         sodipodi:role="line">Presión (MPa)</tspan></text>
    <text
       xml:space="preserve"
       style="font-style:normal;font-weight:normal;font-size:6.35px;line-height:1.25;font-family:sans-serif;fill:#000000;fill-opacity:1;stroke:none;stroke-width:0.264583"
       x="76.918152"
       y="202.78424"
       id="text1032"><tspan
         sodipodi:role="line"
         id="tspan1030"
         x="76.918152"
         y="202.78424"
         style="font-size:6.35px;stroke-width:0.264583">hileo I<tspan
   style="font-size:3.52778px"
   id="tspan1036" /></tspan></text>
    <text
       xml:space="preserve"
       style="font-style:normal;font-weight:normal;font-size:10.5833px;line-height:1.25;font-family:sans-serif;fill:#000000;fill-opacity:1;stroke:none;stroke-width:0.264583"
       x="112.82589"
       y="178.59375"
       id="text1040"><tspan
         sodipodi:role="line"
         id="tspan1038"
         x="112.82589"
         y="178.59375"
         style="font-size:6.35px;stroke-width:0.264583">líquido</tspan></text>
    <text
       xml:space="preserve"
       style="font-style:normal;font-weight:normal;font-size:10.5833px;line-height:1.25;font-family:sans-serif;fill:#000000;fill-opacity:1;stroke:none;stroke-width:0.264583"
       x="66.334816"
       y="175.19196"
       id="text1044"><tspan
         sodipodi:role="line"
         id="tspan1042"
         x="66.334816"
         y="175.19196"
         style="font-size:3.175px;stroke-width:0.264583">hielo II</tspan></text>
    <text
       xml:space="preserve"
       style="font-style:normal;font-weight:normal;font-size:3.175px;line-height:1.25;font-family:sans-serif;fill:#000000;fill-opacity:1;stroke:none;stroke-width:0.264583"
       x="82.620682"
       y="177.19194"
       id="text1048"><tspan
         sodipodi:role="line"
         id="tspan1046"
         x="82.620682"
         y="177.19194"
         style="font-size:3.175px;stroke-width:0.264583">hielo III</tspan></text>
    <text
       xml:space="preserve"
       style="font-style:normal;font-weight:normal;font-size:3.52778px;line-height:1.25;font-family:sans-serif;fill:#000000;fill-opacity:1;stroke:none;stroke-width:0.264583"
       x="85.61161"
       y="172.29033"
       id="text1052"><tspan
         sodipodi:role="line"
         id="tspan1050"
         x="85.61161"
         y="172.29033"
         style="font-size:3.52778px;stroke-width:0.264583">hielo V</tspan></text>
    <text
       xml:space="preserve"
       style="font-style:normal;font-weight:normal;font-size:10.5833px;line-height:1.25;font-family:sans-serif;fill:#000000;fill-opacity:1;stroke:none;stroke-width:0.264583"
       x="96.484299"
       y="168.11252"
       id="text1056"><tspan
         sodipodi:role="line"
         id="tspan1054"
         x="96.484299"
         y="168.11252"
         style="font-size:3.175px;stroke-width:0.264583">hielo VI</tspan></text>
    <text
       xml:space="preserve"
       style="font-style:normal;font-weight:normal;font-size:10.5833px;line-height:1.25;font-family:sans-serif;fill:#000000;fill-opacity:1;stroke:none;stroke-width:0.264583"
       x="61.739265"
       y="249.09486"
       id="text1060"><tspan
         sodipodi:role="line"
         id="tspan1058"
         x="61.739265"
         y="249.09486"
         style="font-size:4.23333px;stroke-width:0.264583">-40</tspan></text>
    <text
       xml:space="preserve"
       style="font-style:normal;font-weight:normal;font-size:10.5833px;line-height:1.25;font-family:sans-serif;fill:#000000;fill-opacity:1;stroke:none;stroke-width:0.264583"
       x="76.839989"
       y="249.13692"
       id="text1064"><tspan
         sodipodi:role="line"
         id="tspan1062"
         x="76.839989"
         y="249.13692"
         style="font-size:4.23333px;stroke-width:0.264583">-30</tspan></text>
    <text
       xml:space="preserve"
       style="font-style:normal;font-weight:normal;font-size:10.5833px;line-height:1.25;font-family:sans-serif;fill:#000000;fill-opacity:1;stroke:none;stroke-width:0.264583"
       x="92.608894"
       y="249.09692"
       id="text1068"><tspan
         sodipodi:role="line"
         id="tspan1066"
         x="92.608894"
         y="249.09692"
         style="font-size:4.23333px;stroke-width:0.264583">-20</tspan></text>
    <text
       xml:space="preserve"
       style="font-style:normal;font-weight:normal;font-size:10.5833px;line-height:1.25;font-family:sans-serif;fill:#000000;fill-opacity:1;stroke:none;stroke-width:0.264583"
       x="108.11053"
       y="249.0952"
       id="text1072"><tspan
         sodipodi:role="line"
         id="tspan1070"
         x="108.11053"
         y="249.0952"
         style="font-size:4.23333px;stroke-width:0.264583">-10</tspan></text>
    <text
       xml:space="preserve"
       style="font-style:normal;font-weight:normal;font-size:10.5833px;line-height:1.25;font-family:sans-serif;fill:#000000;fill-opacity:1;stroke:none;stroke-width:0.264583"
       x="125.54986"
       y="249.09486"
       id="text1076"><tspan
         sodipodi:role="line"
         id="tspan1074"
         x="125.54986"
         y="249.09486"
         style="font-size:4.23333px;stroke-width:0.264583">0</tspan></text>
    <text
       xml:space="preserve"
       style="font-style:normal;font-weight:normal;font-size:10.5833px;line-height:1.25;font-family:sans-serif;fill:#000000;fill-opacity:1;stroke:none;stroke-width:0.264583"
       x="56.507442"
       y="245.68451"
       id="text1126"><tspan
         sodipodi:role="line"
         id="tspan1124"
         x="56.507442"
         y="245.68451"
         style="font-size:4.23333px;stroke-width:0.264583">10</tspan></text>
    <text
       xml:space="preserve"
       style="font-style:normal;font-weight:normal;font-size:10.5833px;line-height:1.25;font-family:sans-serif;fill:#000000;fill-opacity:1;stroke:none;stroke-width:0.264583"
       x="61.13765"
       y="242.66071"
       id="text1130"><tspan
         sodipodi:role="line"
         id="tspan1128"
         x="61.13765"
         y="242.66071"
         style="font-size:2.82222px;stroke-width:0.264583">-1</tspan></text>
    <text
       id="text1126-5"
       y="226.08218"
       x="56.507359"
       style="font-style:normal;font-weight:normal;font-size:10.5833px;line-height:1.25;font-family:sans-serif;fill:#000000;fill-opacity:1;stroke:none;stroke-width:0.264583"
       xml:space="preserve"><tspan
         style="font-size:4.23333px;stroke-width:0.264583"
         y="226.08218"
         x="56.507359"
         id="tspan1124-1"
         sodipodi:role="line">10</tspan></text>
    <text
       id="text1130-3"
       y="223.05838"
       x="61.666733"
       style="font-style:normal;font-weight:normal;font-size:10.5833px;line-height:1.25;font-family:sans-serif;fill:#000000;fill-opacity:1;stroke:none;stroke-width:0.264583"
       xml:space="preserve"><tspan
         style="font-size:2.82223px;stroke-width:0.264583"
         y="223.05838"
         x="61.666733"
         id="tspan1128-2"
         sodipodi:role="line">0</tspan></text>
    <text
       xml:space="preserve"
       style="font-style:normal;font-weight:normal;font-size:10.5833px;line-height:1.25;font-family:sans-serif;fill:#000000;fill-opacity:1;stroke:none;stroke-width:0.264583"
       x="56.507359"
       y="206.47467"
       id="text1126-5-6"><tspan
         sodipodi:role="line"
         id="tspan1124-1-9"
         x="56.507359"
         y="206.47467"
         style="font-size:4.23333px;stroke-width:0.264583">10</tspan></text>
    <text
       xml:space="preserve"
       style="font-style:normal;font-weight:normal;font-size:10.5833px;line-height:1.25;font-family:sans-serif;fill:#000000;fill-opacity:1;stroke:none;stroke-width:0.264583"
       x="61.776367"
       y="203.45087"
       id="text1130-3-0"><tspan
         sodipodi:role="line"
         id="tspan1128-2-0"
         x="61.776367"
         y="203.45087"
         style="font-size:2.82223px;stroke-width:0.264583">1</tspan></text>
    <text
       id="text1126-5-6-3"
       y="186.63091"
       x="56.507359"
       style="font-style:normal;font-weight:normal;font-size:10.5833px;line-height:1.25;font-family:sans-serif;fill:#000000;fill-opacity:1;stroke:none;stroke-width:0.264583"
       xml:space="preserve"><tspan
         style="font-size:4.23333px;stroke-width:0.264583"
         y="186.63091"
         x="56.507359"
         id="tspan1124-1-9-9"
         sodipodi:role="line">10</tspan></text>
    <text
       id="text1130-3-0-5"
       y="183.6071"
       x="61.927559"
       style="font-style:normal;font-weight:normal;font-size:10.5833px;line-height:1.25;font-family:sans-serif;fill:#000000;fill-opacity:1;stroke:none;stroke-width:0.264583"
       xml:space="preserve"><tspan
         style="font-size:2.82223px;stroke-width:0.264583"
         y="183.6071"
         x="61.927559"
         id="tspan1128-2-0-3"
         sodipodi:role="line">2</tspan></text>
    <text
       xml:space="preserve"
       style="font-style:normal;font-weight:normal;font-size:10.5833px;line-height:1.25;font-family:sans-serif;fill:#000000;fill-opacity:1;stroke:none;stroke-width:0.264583"
       x="56.507359"
       y="166.45642"
       id="text1126-5-6-3-1"><tspan
         sodipodi:role="line"
         id="tspan1124-1-9-9-1"
         x="56.507359"
         y="166.45642"
         style="font-size:4.23333px;stroke-width:0.264583">10</tspan></text>
    <text
       xml:space="preserve"
       style="font-style:normal;font-weight:normal;font-size:10.5833px;line-height:1.25;font-family:sans-serif;fill:#000000;fill-opacity:1;stroke:none;stroke-width:0.264583"
       x="61.587379"
       y="163.43262"
       id="text1130-3-0-5-2"><tspan
         sodipodi:role="line"
         id="tspan1128-2-0-3-6"
         x="61.587379"
         y="163.43262"
         style="font-size:2.82223px;stroke-width:0.264583">3</tspan></text>
    <text
       xml:space="preserve"
       style="font-style:normal;font-weight:normal;font-size:10.5833px;line-height:1.25;font-family:sans-serif;fill:#000000;fill-opacity:1;stroke:none;stroke-width:0.264583"
       x="97.28611"
       y="204.19392"
       id="text1970"><tspan
         sodipodi:role="line"
         id="tspan1968"
         x="97.28611"
         y="204.19392"
         style="font-size:3.52778px;stroke-width:0.264583">h</tspan></text>
  </g>
</svg>
